<svg xmlns="http://www.w3.org/2000/svg" width="1100" height="750" viewBox="0 0 1100 750" font-family="'Segoe UI', Arial, sans-serif">
  <defs>
    <pattern id="hatch" width="6" height="6" patternUnits="userSpaceOnUse" patternTransform="rotate(45)">
      <line x1="0" y1="0" x2="0" y2="6" stroke="#b0c4de" stroke-width="1" opacity="0.4"/>
    </pattern>
    <pattern id="stair" width="10" height="10" patternUnits="userSpaceOnUse">
      <line x1="0" y1="5" x2="10" y2="5" stroke="#95a5a6" stroke-width="1"/>
    </pattern>
  </defs>

  <!-- Background -->
  <rect width="1100" height="750" fill="#f0f4f8"/>
  <!-- Outer wall -->
  <rect x="30" y="60" width="1040" height="660" fill="#e8edf2" stroke="#2c3e50" stroke-width="5" rx="4"/>

  <!-- Title bar -->
  <rect x="30" y="10" width="1040" height="45" fill="#1a3a5c" rx="3"/>
  <text x="550" y="36" text-anchor="middle" fill="white" font-size="16" font-weight="700" letter-spacing="3">RUBY HALL CLINIC, PUNE  ·  FIRST FLOOR PLAN  (1)</text>
  <text x="1060" y="80" text-anchor="end" fill="#7f8c8d" font-size="10" font-style="italic">↑ N</text>

  <!-- ══════════════ MALE GENERAL WARD (top-left) ══════════════ -->
  <rect x="40" y="70" width="310" height="260" fill="#607d8b" fill-opacity="0.2" stroke="#37474f" stroke-width="2.5"/>
  <text x="195" y="92" text-anchor="middle" fill="#1a2a35" font-size="13" font-weight="700" letter-spacing="1">MALE GENERAL WARD</text>

  <!-- Bed grid M -->
  <!-- Row 1: M1–M5 -->
  <rect x="48"  y="100" width="42" height="26" fill="#90a4ae" fill-opacity="0.6" stroke="#546e7a" stroke-width="1" rx="3"/>
  <text x="69"  y="117" text-anchor="middle" fill="white" font-size="8">M1</text>
  <rect x="96"  y="100" width="42" height="26" fill="#90a4ae" fill-opacity="0.6" stroke="#546e7a" stroke-width="1" rx="3"/>
  <text x="117" y="117" text-anchor="middle" fill="white" font-size="8">M2</text>
  <rect x="144" y="100" width="42" height="26" fill="#90a4ae" fill-opacity="0.6" stroke="#546e7a" stroke-width="1" rx="3"/>
  <text x="165" y="117" text-anchor="middle" fill="white" font-size="8">M3</text>
  <rect x="192" y="100" width="42" height="26" fill="#90a4ae" fill-opacity="0.6" stroke="#546e7a" stroke-width="1" rx="3"/>
  <text x="213" y="117" text-anchor="middle" fill="white" font-size="8">M4</text>
  <rect x="240" y="100" width="42" height="26" fill="#90a4ae" fill-opacity="0.6" stroke="#546e7a" stroke-width="1" rx="3"/>
  <text x="261" y="117" text-anchor="middle" fill="white" font-size="8">M5</text>
  <!-- Row 2: M6–M10 -->
  <rect x="48"  y="132" width="42" height="26" fill="#90a4ae" fill-opacity="0.6" stroke="#546e7a" stroke-width="1" rx="3"/>
  <text x="69"  y="149" text-anchor="middle" fill="white" font-size="8">M6</text>
  <rect x="96"  y="132" width="42" height="26" fill="#90a4ae" fill-opacity="0.6" stroke="#546e7a" stroke-width="1" rx="3"/>
  <text x="117" y="149" text-anchor="middle" fill="white" font-size="8">M7</text>
  <rect x="144" y="132" width="42" height="26" fill="#90a4ae" fill-opacity="0.6" stroke="#546e7a" stroke-width="1" rx="3"/>
  <text x="165" y="149" text-anchor="middle" fill="white" font-size="8">M8</text>
  <rect x="192" y="132" width="42" height="26" fill="#90a4ae" fill-opacity="0.6" stroke="#546e7a" stroke-width="1" rx="3"/>
  <text x="213" y="149" text-anchor="middle" fill="white" font-size="8">M9</text>
  <rect x="240" y="132" width="42" height="26" fill="#90a4ae" fill-opacity="0.6" stroke="#546e7a" stroke-width="1" rx="3"/>
  <text x="261" y="149" text-anchor="middle" fill="white" font-size="8">M10</text>
  <!-- Row 3: M11–M15 -->
  <rect x="48"  y="164" width="42" height="26" fill="#90a4ae" fill-opacity="0.6" stroke="#546e7a" stroke-width="1" rx="3"/>
  <text x="69"  y="181" text-anchor="middle" fill="white" font-size="8">M11</text>
  <rect x="96"  y="164" width="42" height="26" fill="#90a4ae" fill-opacity="0.6" stroke="#546e7a" stroke-width="1" rx="3"/>
  <text x="117" y="181" text-anchor="middle" fill="white" font-size="8">M12</text>
  <rect x="144" y="164" width="42" height="26" fill="#90a4ae" fill-opacity="0.6" stroke="#546e7a" stroke-width="1" rx="3"/>
  <text x="165" y="181" text-anchor="middle" fill="white" font-size="8">M13</text>
  <rect x="192" y="164" width="42" height="26" fill="#90a4ae" fill-opacity="0.6" stroke="#546e7a" stroke-width="1" rx="3"/>
  <text x="213" y="181" text-anchor="middle" fill="white" font-size="8">M14</text>
  <rect x="240" y="164" width="42" height="26" fill="#90a4ae" fill-opacity="0.6" stroke="#546e7a" stroke-width="1" rx="3"/>
  <text x="261" y="181" text-anchor="middle" fill="white" font-size="8">M15</text>

  <!-- Nurse Station M -->
  <rect x="48" y="200" width="95" height="45" fill="#00897b" fill-opacity="0.45" stroke="#00695c" stroke-width="2"/>
  <text x="95" y="220" text-anchor="middle" fill="#003d33" font-size="10" font-weight="700">NURSE</text>
  <text x="95" y="234" text-anchor="middle" fill="#003d33" font-size="9">STATION</text>
  <!-- Toilet M -->
  <rect x="150" y="200" width="70" height="45" fill="url(#hatch)" stroke="#7f8c8d" stroke-width="1.5"/>
  <text x="185" y="221" text-anchor="middle" fill="#2c3e50" font-size="10">WC ♂</text>
  <!-- Bathroom M -->
  <rect x="227" y="200" width="75" height="45" fill="url(#hatch)" stroke="#7f8c8d" stroke-width="1.5"/>
  <text x="264" y="221" text-anchor="middle" fill="#2c3e50" font-size="10">BATH</text>
  <!-- Doctor Room -->
  <rect x="48" y="252" width="110" height="48" fill="#b0bec5" fill-opacity="0.5" stroke="#78909c" stroke-width="1.5"/>
  <text x="103" y="274" text-anchor="middle" fill="#2c3e50" font-size="10" font-weight="700">DOCTOR ROOM</text>
  <text x="103" y="287" text-anchor="middle" fill="#2c3e50" font-size="9">Resident Doctors</text>
  <!-- Staff Room -->
  <rect x="165" y="252" width="137" height="48" fill="#b0bec5" fill-opacity="0.5" stroke="#78909c" stroke-width="1.5"/>
  <text x="233" y="274" text-anchor="middle" fill="#2c3e50" font-size="10" font-weight="700">STAFF ROOM</text>
  <text x="233" y="287" text-anchor="middle" fill="#2c3e50" font-size="9">Nurses / Attendants</text>

  <!-- ══════════════ ICU (top-center) ══════════════ -->
  <rect x="358" y="70" width="340" height="240" fill="#00acc1" fill-opacity="0.22" stroke="#00838f" stroke-width="3"/>
  <text x="528" y="92" text-anchor="middle" fill="#004d56" font-size="13" font-weight="700" letter-spacing="1">ICU — INTENSIVE CARE UNIT</text>

  <!-- ICU Beds 1–5 top row -->
  <rect x="366" y="105" width="55" height="40" fill="#00bcd4" fill-opacity="0.5" stroke="#0097a7" stroke-width="1.5" rx="4"/>
  <text x="393" y="129" text-anchor="middle" fill="white" font-size="9" font-weight="700">Bed 1</text>
  <rect x="428" y="105" width="55" height="40" fill="#00bcd4" fill-opacity="0.5" stroke="#0097a7" stroke-width="1.5" rx="4"/>
  <text x="455" y="129" text-anchor="middle" fill="white" font-size="9" font-weight="700">Bed 2</text>
  <rect x="490" y="105" width="55" height="40" fill="#00bcd4" fill-opacity="0.5" stroke="#0097a7" stroke-width="1.5" rx="4"/>
  <text x="517" y="129" text-anchor="middle" fill="white" font-size="9" font-weight="700">Bed 3</text>
  <rect x="552" y="105" width="55" height="40" fill="#00bcd4" fill-opacity="0.5" stroke="#0097a7" stroke-width="1.5" rx="4"/>
  <text x="579" y="129" text-anchor="middle" fill="white" font-size="9" font-weight="700">Bed 4</text>
  <rect x="614" y="105" width="55" height="40" fill="#00bcd4" fill-opacity="0.5" stroke="#0097a7" stroke-width="1.5" rx="4"/>
  <text x="641" y="129" text-anchor="middle" fill="white" font-size="9" font-weight="700">Bed 5</text>
  <!-- ICU Beds 6–10 bottom row -->
  <rect x="366" y="153" width="55" height="40" fill="#00bcd4" fill-opacity="0.5" stroke="#0097a7" stroke-width="1.5" rx="4"/>
  <text x="393" y="177" text-anchor="middle" fill="white" font-size="9" font-weight="700">Bed 6</text>
  <rect x="428" y="153" width="55" height="40" fill="#00bcd4" fill-opacity="0.5" stroke="#0097a7" stroke-width="1.5" rx="4"/>
  <text x="455" y="177" text-anchor="middle" fill="white" font-size="9" font-weight="700">Bed 7</text>
  <rect x="490" y="153" width="55" height="40" fill="#00bcd4" fill-opacity="0.5" stroke="#0097a7" stroke-width="1.5" rx="4"/>
  <text x="517" y="177" text-anchor="middle" fill="white" font-size="9" font-weight="700">Bed 8</text>
  <rect x="552" y="153" width="55" height="40" fill="#00bcd4" fill-opacity="0.5" stroke="#0097a7" stroke-width="1.5" rx="4"/>
  <text x="579" y="177" text-anchor="middle" fill="white" font-size="9" font-weight="700">Bed 9</text>
  <rect x="614" y="153" width="55" height="40" fill="#00bcd4" fill-opacity="0.5" stroke="#0097a7" stroke-width="1.5" rx="4"/>
  <text x="641" y="177" text-anchor="middle" fill="white" font-size="9" font-weight="700">Bed 10</text>

  <!-- ICU Nurse Station -->
  <rect x="366" y="203" width="135" height="52" fill="#00897b" fill-opacity="0.5" stroke="#00695c" stroke-width="2"/>
  <text x="433" y="224" text-anchor="middle" fill="white" font-size="11" font-weight="700">NURSE STATION</text>
  <text x="433" y="240" text-anchor="middle" fill="white" font-size="9">ICU Central</text>
  <!-- ICU Store -->
  <rect x="507" y="203" width="162" height="52" fill="#4db6ac" fill-opacity="0.4" stroke="#00897b" stroke-width="1.5"/>
  <text x="588" y="224" text-anchor="middle" fill="#003d33" font-size="11" font-weight="700">ICU STORE</text>
  <text x="588" y="240" text-anchor="middle" fill="#003d33" font-size="9">Equipment · Meds</text>

  <!-- ══════════════ OT COMPLEX (top-right) ══════════════ -->
  <rect x="706" y="70" width="364" height="300" fill="#1abc9c" fill-opacity="0.15" stroke="#0d7a5c" stroke-width="3"/>
  <text x="888" y="92" text-anchor="middle" fill="#0a3d2f" font-size="13" font-weight="700" letter-spacing="1">OT COMPLEX — OPERATION THEATRE</text>

  <!-- OT 1 General Surgery -->
  <rect x="715" y="105" width="160" height="90" fill="#1abc9c" fill-opacity="0.35" stroke="#0d7a5c" stroke-width="2"/>
  <text x="795" y="141" text-anchor="middle" fill="#0a3d2f" font-size="12" font-weight="700">OT — 1</text>
  <text x="795" y="158" text-anchor="middle" fill="#0a3d2f" font-size="10">General Surgery</text>
  <!-- OT 2 Orthopaedics -->
  <rect x="883" y="105" width="175" height="90" fill="#1abc9c" fill-opacity="0.35" stroke="#0d7a5c" stroke-width="2"/>
  <text x="970" y="141" text-anchor="middle" fill="#0a3d2f" font-size="12" font-weight="700">OT — 2</text>
  <text x="970" y="158" text-anchor="middle" fill="#0a3d2f" font-size="10">Orthopaedics</text>
  <!-- OT 3 Gynaecology -->
  <rect x="715" y="205" width="160" height="90" fill="#ec407a" fill-opacity="0.3" stroke="#ad1457" stroke-width="2"/>
  <text x="795" y="241" text-anchor="middle" fill="#5c0030" font-size="12" font-weight="700">OT — 3</text>
  <text x="795" y="258" text-anchor="middle" fill="#5c0030" font-size="10">Gynaecology</text>
  <!-- OT 4 Emergency -->
  <rect x="883" y="205" width="175" height="90" fill="#e74c3c" fill-opacity="0.3" stroke="#c0392b" stroke-width="2"/>
  <text x="970" y="241" text-anchor="middle" fill="#7b0000" font-size="12" font-weight="700">OT — 4</text>
  <text x="970" y="258" text-anchor="middle" fill="#7b0000" font-size="10">Emergency OT</text>

  <!-- Pre-op Room -->
  <rect x="706" y="300" width="170" height="65" fill="#a5d6a7" fill-opacity="0.5" stroke="#388e3c" stroke-width="2"/>
  <text x="791" y="325" text-anchor="middle" fill="#1a4a1c" font-size="12" font-weight="700">PRE-OP ROOM</text>
  <text x="791" y="342" text-anchor="middle" fill="#1a4a1c" font-size="10">Preparation · Anaesthesia</text>
  <!-- Post-op Room -->
  <rect x="883" y="300" width="175" height="65" fill="#c8e6c9" fill-opacity="0.5" stroke="#388e3c" stroke-width="2"/>
  <text x="970" y="325" text-anchor="middle" fill="#1a4a1c" font-size="12" font-weight="700">POST-OP ROOM</text>
  <text x="970" y="342" text-anchor="middle" fill="#1a4a1c" font-size="10">Recovery · Monitoring</text>

  <!-- ══════════════ MAIN CORRIDOR ══════════════ -->
  <rect x="40" y="338" width="930" height="34" fill="#dce8f5" stroke="#2980b9" stroke-width="1.5"/>
  <text x="505" y="360" text-anchor="middle" fill="#1a5276" font-size="10" font-weight="600" letter-spacing="4">MAIN CORRIDOR — FIRST FLOOR</text>

  <!-- ══════════════ FEMALE GENERAL WARD (bottom-left) ══════════════ -->
  <rect x="40" y="378" width="310" height="260" fill="#ec407a" fill-opacity="0.15" stroke="#ad1457" stroke-width="2.5"/>
  <text x="195" y="400" text-anchor="middle" fill="#5c0030" font-size="13" font-weight="700" letter-spacing="1">FEMALE GENERAL WARD</text>

  <!-- Bed grid F -->
  <rect x="48"  y="408" width="42" height="26" fill="#f48fb1" fill-opacity="0.65" stroke="#e91e63" stroke-width="1" rx="3"/>
  <text x="69"  y="425" text-anchor="middle" fill="#5c0030" font-size="8">F1</text>
  <rect x="96"  y="408" width="42" height="26" fill="#f48fb1" fill-opacity="0.65" stroke="#e91e63" stroke-width="1" rx="3"/>
  <text x="117" y="425" text-anchor="middle" fill="#5c0030" font-size="8">F2</text>
  <rect x="144" y="408" width="42" height="26" fill="#f48fb1" fill-opacity="0.65" stroke="#e91e63" stroke-width="1" rx="3"/>
  <text x="165" y="425" text-anchor="middle" fill="#5c0030" font-size="8">F3</text>
  <rect x="192" y="408" width="42" height="26" fill="#f48fb1" fill-opacity="0.65" stroke="#e91e63" stroke-width="1" rx="3"/>
  <text x="213" y="425" text-anchor="middle" fill="#5c0030" font-size="8">F4</text>
  <rect x="240" y="408" width="42" height="26" fill="#f48fb1" fill-opacity="0.65" stroke="#e91e63" stroke-width="1" rx="3"/>
  <text x="261" y="425" text-anchor="middle" fill="#5c0030" font-size="8">F5</text>
  <rect x="48"  y="440" width="42" height="26" fill="#f48fb1" fill-opacity="0.65" stroke="#e91e63" stroke-width="1" rx="3"/>
  <text x="69"  y="457" text-anchor="middle" fill="#5c0030" font-size="8">F6</text>
  <rect x="96"  y="440" width="42" height="26" fill="#f48fb1" fill-opacity="0.65" stroke="#e91e63" stroke-width="1" rx="3"/>
  <text x="117" y="457" text-anchor="middle" fill="#5c0030" font-size="8">F7</text>
  <rect x="144" y="440" width="42" height="26" fill="#f48fb1" fill-opacity="0.65" stroke="#e91e63" stroke-width="1" rx="3"/>
  <text x="165" y="457" text-anchor="middle" fill="#5c0030" font-size="8">F8</text>
  <rect x="192" y="440" width="42" height="26" fill="#f48fb1" fill-opacity="0.65" stroke="#e91e63" stroke-width="1" rx="3"/>
  <text x="213" y="457" text-anchor="middle" fill="#5c0030" font-size="8">F9</text>
  <rect x="240" y="440" width="42" height="26" fill="#f48fb1" fill-opacity="0.65" stroke="#e91e63" stroke-width="1" rx="3"/>
  <text x="261" y="457" text-anchor="middle" fill="#5c0030" font-size="8">F10</text>
  <rect x="48"  y="472" width="42" height="26" fill="#f48fb1" fill-opacity="0.65" stroke="#e91e63" stroke-width="1" rx="3"/>
  <text x="69"  y="489" text-anchor="middle" fill="#5c0030" font-size="8">F11</text>
  <rect x="96"  y="472" width="42" height="26" fill="#f48fb1" fill-opacity="0.65" stroke="#e91e63" stroke-width="1" rx="3"/>
  <text x="117" y="489" text-anchor="middle" fill="#5c0030" font-size="8">F12</text>
  <rect x="144" y="472" width="42" height="26" fill="#f48fb1" fill-opacity="0.65" stroke="#e91e63" stroke-width="1" rx="3"/>
  <text x="165" y="489" text-anchor="middle" fill="#5c0030" font-size="8">F13</text>
  <rect x="192" y="472" width="42" height="26" fill="#f48fb1" fill-opacity="0.65" stroke="#e91e63" stroke-width="1" rx="3"/>
  <text x="213" y="489" text-anchor="middle" fill="#5c0030" font-size="8">F14</text>
  <rect x="240" y="472" width="42" height="26" fill="#f48fb1" fill-opacity="0.65" stroke="#e91e63" stroke-width="1" rx="3"/>
  <text x="261" y="489" text-anchor="middle" fill="#5c0030" font-size="8">F15</text>

  <!-- Nurse Station F -->
  <rect x="48" y="508" width="95" height="45" fill="#00897b" fill-opacity="0.45" stroke="#00695c" stroke-width="2"/>
  <text x="95" y="528" text-anchor="middle" fill="#003d33" font-size="10" font-weight="700">NURSE</text>
  <text x="95" y="542" text-anchor="middle" fill="#003d33" font-size="9">STATION</text>
  <!-- Toilet F -->
  <rect x="150" y="508" width="70" height="45" fill="url(#hatch)" stroke="#7f8c8d" stroke-width="1.5"/>
  <text x="185" y="529" text-anchor="middle" fill="#2c3e50" font-size="10">WC ♀</text>
  <!-- Bathroom F -->
  <rect x="227" y="508" width="75" height="45" fill="url(#hatch)" stroke="#7f8c8d" stroke-width="1.5"/>
  <text x="264" y="529" text-anchor="middle" fill="#2c3e50" font-size="10">BATH</text>

  <!-- Ward Pantry -->
  <rect x="48" y="560" width="140" height="50" fill="#aed581" fill-opacity="0.45" stroke="#7cb342" stroke-width="1.5"/>
  <text x="118" y="584" text-anchor="middle" fill="#1b5e20" font-size="10" font-weight="700">WARD PANTRY</text>
  <!-- Store Room -->
  <rect x="195" y="560" width="130" height="50" fill="#b0bec5" fill-opacity="0.45" stroke="#78909c" stroke-width="1.5"/>
  <text x="260" y="584" text-anchor="middle" fill="#2c3e50" font-size="10" font-weight="700">STORE ROOM</text>

  <!-- ══════════════ CENTRAL ZONE (bottom-center) ══════════════ -->
  <!-- Medical Store -->
  <rect x="358" y="378" width="185" height="100" fill="#f39c12" fill-opacity="0.28" stroke="#e67e22" stroke-width="2"/>
  <text x="450" y="416" text-anchor="middle" fill="#7d4a00" font-size="12" font-weight="700">MEDICAL STORE</text>
  <text x="450" y="433" text-anchor="middle" fill="#7d4a00" font-size="10">Medicines / Equipment</text>
  <text x="450" y="448" text-anchor="middle" fill="#7d4a00" font-size="9">Floor 1 Supply</text>

  <!-- Central Nurse Station -->
  <rect x="548" y="378" width="150" height="100" fill="#00897b" fill-opacity="0.4" stroke="#00695c" stroke-width="2"/>
  <text x="623" y="416" text-anchor="middle" fill="white" font-size="12" font-weight="700">CENTRAL</text>
  <text x="623" y="433" text-anchor="middle" fill="white" font-size="11">NURSE STATION</text>
  <text x="623" y="449" text-anchor="middle" fill="#b2dfdb" font-size="9">Floor 1 Hub</text>

  <!-- WC Male -->
  <rect x="358" y="482" width="95" height="70" fill="url(#hatch)" stroke="#7f8c8d" stroke-width="1.5"/>
  <text x="405" y="514" text-anchor="middle" fill="#2c3e50" font-size="11" font-weight="700">WC</text>
  <text x="405" y="529" text-anchor="middle" fill="#2c3e50" font-size="10">♂ Male</text>
  <!-- WC Female -->
  <rect x="458" y="482" width="95" height="70" fill="url(#hatch)" stroke="#7f8c8d" stroke-width="1.5"/>
  <text x="505" y="514" text-anchor="middle" fill="#2c3e50" font-size="11" font-weight="700">WC</text>
  <text x="505" y="529" text-anchor="middle" fill="#2c3e50" font-size="10">♀ Female</text>
  <!-- Duty Room -->
  <rect x="558" y="482" width="140" height="70" fill="#b0bec5" fill-opacity="0.4" stroke="#78909c" stroke-width="1.5"/>
  <text x="628" y="514" text-anchor="middle" fill="#2c3e50" font-size="11" font-weight="700">DUTY ROOM</text>
  <text x="628" y="529" text-anchor="middle" fill="#2c3e50" font-size="9">On-call Doctors</text>

  <!-- Lifts -->
  <rect x="358" y="555" width="75" height="80" fill="#2c3e50" fill-opacity="0.35" stroke="#2c3e50" stroke-width="2"/>
  <text x="395" y="591" text-anchor="middle" fill="white" font-size="13">🛗</text>
  <text x="395" y="608" text-anchor="middle" fill="white" font-size="10">LIFTS</text>

  <!-- ══════════════ PRIVATE ROOMS (bottom-right) ══════════════ -->
  <rect x="706" y="378" width="364" height="290" fill="#f39c12" fill-opacity="0.12" stroke="#e67e22" stroke-width="2.5"/>
  <text x="888" y="400" text-anchor="middle" fill="#7d4a00" font-size="13" font-weight="700" letter-spacing="1">PRIVATE ROOMS</text>
  <text x="888" y="416" text-anchor="middle" fill="#7d4a00" font-size="10">Attached Toilets / Bathrooms</text>

  <!-- Room P1 -->
  <rect x="714" y="425" width="105" height="75" fill="#ffe082" fill-opacity="0.55" stroke="#f9a825" stroke-width="1.5"/>
  <text x="766" y="458" text-anchor="middle" fill="#7d4a00" font-size="11" font-weight="700">Room P1</text>
  <text x="766" y="474" text-anchor="middle" fill="#7d4a00" font-size="9">Semi-Private</text>
  <!-- Room P2 -->
  <rect x="826" y="425" width="105" height="75" fill="#ffe082" fill-opacity="0.55" stroke="#f9a825" stroke-width="1.5"/>
  <text x="878" y="458" text-anchor="middle" fill="#7d4a00" font-size="11" font-weight="700">Room P2</text>
  <text x="878" y="474" text-anchor="middle" fill="#7d4a00" font-size="9">Semi-Private</text>
  <!-- Room P3 -->
  <rect x="938" y="425" width="120" height="75" fill="#ffe082" fill-opacity="0.55" stroke="#f9a825" stroke-width="1.5"/>
  <text x="998" y="458" text-anchor="middle" fill="#7d4a00" font-size="11" font-weight="700">Room P3</text>
  <text x="998" y="474" text-anchor="middle" fill="#7d4a00" font-size="9">Private</text>
  <!-- Room P4 -->
  <rect x="714" y="510" width="105" height="80" fill="#ffd54f" fill-opacity="0.6" stroke="#f57f17" stroke-width="2"/>
  <text x="766" y="546" text-anchor="middle" fill="#5c3000" font-size="11" font-weight="700">Room P4</text>
  <text x="766" y="562" text-anchor="middle" fill="#5c3000" font-size="9">Private</text>
  <!-- Room P5 VIP -->
  <rect x="826" y="510" width="105" height="80" fill="#ffca28" fill-opacity="0.65" stroke="#f57f17" stroke-width="2.5"/>
  <text x="878" y="541" text-anchor="middle" fill="#5c3000" font-size="11" font-weight="700">Room P5</text>
  <text x="878" y="557" text-anchor="middle" fill="#e65100" font-size="10" font-weight="700">★ VIP Room</text>
  <!-- Room P6 VIP -->
  <rect x="938" y="510" width="120" height="80" fill="#ffca28" fill-opacity="0.65" stroke="#f57f17" stroke-width="2.5"/>
  <text x="998" y="541" text-anchor="middle" fill="#5c3000" font-size="11" font-weight="700">Room P6</text>
  <text x="998" y="557" text-anchor="middle" fill="#e65100" font-size="10" font-weight="700">★ VIP Room</text>

  <!-- ══════════════ LOWER CORRIDOR ══════════════ -->
  <rect x="40" y="648" width="930" height="28" fill="#dce8f5" stroke="#2980b9" stroke-width="1"/>
  <text x="505" y="666" text-anchor="middle" fill="#1a5276" font-size="9" font-weight="600" letter-spacing="3">LOWER CORRIDOR — FIRST FLOOR</text>

  <!-- Staircase Left -->
  <rect x="40" y="680" width="155" height="38" fill="url(#stair)" stroke="#7f8c8d" stroke-width="1.5"/>
  <text x="117" y="702" text-anchor="middle" fill="#2c3e50" font-size="10" font-weight="700">STAIRCASE — FIRE EXIT (LEFT)</text>
  <!-- Central Service -->
  <rect x="400" y="680" width="280" height="38" fill="#ecf0f1" stroke="#bdc3c7" stroke-width="1"/>
  <text x="540" y="702" text-anchor="middle" fill="#7f8c8d" font-size="10">CENTRAL CORRIDOR — SERVICE AREA</text>
  <!-- Staircase Right -->
  <rect x="900" y="680" width="170" height="38" fill="url(#stair)" stroke="#7f8c8d" stroke-width="1.5"/>
  <text x="985" y="702" text-anchor="middle" fill="#2c3e50" font-size="10" font-weight="700">STAIRCASE — FIRE EXIT (RIGHT)</text>

  <!-- ══════════════ LEGEND ══════════════ -->
  <rect x="30" y="726" width="1040" height="20" fill="#1a3a5c" rx="0 0 3 3"/>
  <text x="60"  y="739" fill="white" font-size="9">■ ICU</text>
  <text x="115" y="739" fill="white" font-size="9">■ OT Complex</text>
  <text x="230" y="739" fill="white" font-size="9">■ Male Ward</text>
  <text x="340" y="739" fill="white" font-size="9">■ Female Ward</text>
  <text x="460" y="739" fill="white" font-size="9">■ Private / VIP</text>
  <text x="575" y="739" fill="white" font-size="9">■ Nurse Station</text>
  <text x="700" y="739" fill="white" font-size="9">■ Utility / WC</text>
  <text x="800" y="739" fill="white" font-size="9">■ Corridor / Service</text>
  <text x="940" y="739" fill="white" font-size="9">■ Lifts / Stairs</text>
</svg>
