<svg xmlns="http://www.w3.org/2000/svg" width="1100" height="750" viewBox="0 0 1100 750" font-family="'Segoe UI', Arial, sans-serif">
  <defs>
    <pattern id="hatch" width="6" height="6" patternUnits="userSpaceOnUse" patternTransform="rotate(45)">
      <line x1="0" y1="0" x2="0" y2="6" stroke="#b0c4de" stroke-width="1" opacity="0.4"/>
    </pattern>
    <filter id="shadow" x="-5%" y="-5%" width="110%" height="110%">
      <feDropShadow dx="1" dy="1" stdDeviation="2" flood-color="#00000033"/>
    </filter>
  </defs>

  <!-- Background -->
  <rect width="1100" height="750" fill="#f0f4f8"/>

  <!-- Outer building wall -->
  <rect x="30" y="60" width="1040" height="660" fill="#e8edf2" stroke="#2c3e50" stroke-width="5" rx="4"/>

  <!-- Title -->
  <rect x="30" y="10" width="1040" height="45" fill="#1a3a5c" rx="3"/>
  <text x="550" y="36" text-anchor="middle" fill="white" font-size="16" font-weight="700" letter-spacing="3">RUBY HALL CLINIC, PUNE  ·  GROUND FLOOR PLAN  (G)</text>
  <text x="1060" y="80" text-anchor="end" fill="#7f8c8d" font-size="10" font-style="italic">↑ N</text>

  <!-- ══════════════ SECTION A: TOP ROW ══════════════ -->

  <!-- Main Entrance Lobby / Reception -->
  <rect x="40" y="70" width="310" height="150" fill="#c8a2c8" fill-opacity="0.35" stroke="#7b2d8b" stroke-width="2"/>
  <text x="195" y="125" text-anchor="middle" fill="#4a0072" font-size="13" font-weight="700">MAIN ENTRANCE</text>
  <text x="195" y="143" text-anchor="middle" fill="#4a0072" font-size="11">LOBBY &amp; RECEPTION</text>
  <text x="195" y="159" text-anchor="middle" fill="#4a0072" font-size="10">Info Desk · Seating · Help</text>

  <!-- OPD Registration -->
  <rect x="355" y="70" width="200" height="150" fill="#c8a2c8" fill-opacity="0.35" stroke="#7b2d8b" stroke-width="2"/>
  <text x="455" y="130" text-anchor="middle" fill="#4a0072" font-size="12" font-weight="700">OPD</text>
  <text x="455" y="148" text-anchor="middle" fill="#4a0072" font-size="11">REGISTRATION</text>
  <text x="455" y="165" text-anchor="middle" fill="#4a0072" font-size="10">&amp; BILLING</text>

  <!-- Emergency & Casualty -->
  <rect x="560" y="70" width="230" height="150" fill="#e74c3c" fill-opacity="0.28" stroke="#c0392b" stroke-width="3"/>
  <text x="675" y="120" text-anchor="middle" fill="#7b0000" font-size="13" font-weight="700">⚡ EMERGENCY</text>
  <text x="675" y="138" text-anchor="middle" fill="#7b0000" font-size="11">&amp; CASUALTY</text>
  <text x="675" y="155" text-anchor="middle" fill="#7b0000" font-size="10">24 × 7  ·  Triage  ·  Resus</text>
  <text x="675" y="170" text-anchor="middle" fill="#c0392b" font-size="10" font-weight="700">☎ 108</text>

  <!-- Ambulance Bay -->
  <rect x="795" y="70" width="175" height="75" fill="#e74c3c" fill-opacity="0.18" stroke="#c0392b" stroke-width="2" stroke-dasharray="6,3"/>
  <text x="882" y="103" text-anchor="middle" fill="#7b0000" font-size="11" font-weight="700">AMBULANCE BAY</text>
  <text x="882" y="119" text-anchor="middle" fill="#7b0000" font-size="10">&amp; DROP-OFF ZONE</text>

  <!-- Security -->
  <rect x="795" y="148" width="175" height="72" fill="#95a5a6" fill-opacity="0.35" stroke="#7f8c8d" stroke-width="2"/>
  <text x="882" y="181" text-anchor="middle" fill="#2c3e50" font-size="11" font-weight="700">SECURITY</text>
  <text x="882" y="197" text-anchor="middle" fill="#2c3e50" font-size="10">&amp; GUARD POST</text>

  <!-- ══════════════ HORIZONTAL CORRIDOR 1 ══════════════ -->
  <rect x="40" y="225" width="930" height="34" fill="#dce8f5" stroke="#2980b9" stroke-width="1.5"/>
  <text x="505" y="247" text-anchor="middle" fill="#1a5276" font-size="10" font-weight="600" letter-spacing="4">MAIN ENTRANCE CORRIDOR — GROUND FLOOR</text>

  <!-- ══════════════ SECTION B: MIDDLE LEFT ══════════════ -->

  <!-- Cardiology OPD -->
  <rect x="40" y="264" width="175" height="110" fill="#e74c3c" fill-opacity="0.25" stroke="#c0392b" stroke-width="2"/>
  <text x="127" y="308" text-anchor="middle" fill="#7b0000" font-size="12" font-weight="700">CARDIOLOGY</text>
  <text x="127" y="325" text-anchor="middle" fill="#7b0000" font-size="10">OPD · Consult</text>
  <text x="127" y="341" text-anchor="middle" fill="#7b0000" font-size="9">Cath Lab Access ↓</text>

  <!-- Radiology -->
  <rect x="220" y="264" width="200" height="110" fill="#3498db" fill-opacity="0.25" stroke="#2980b9" stroke-width="2"/>
  <text x="320" y="305" text-anchor="middle" fill="#1a3a6e" font-size="12" font-weight="700">RADIOLOGY</text>
  <text x="320" y="322" text-anchor="middle" fill="#1a3a6e" font-size="10">X-Ray · CT Scan</text>
  <text x="320" y="338" text-anchor="middle" fill="#1a3a6e" font-size="10">MRI · Ultrasound</text>
  <text x="320" y="354" text-anchor="middle" fill="#1a3a6e" font-size="9">Reporting Room</text>

  <!-- Blood Bank -->
  <rect x="425" y="264" width="160" height="55" fill="#922b21" fill-opacity="0.25" stroke="#922b21" stroke-width="2"/>
  <text x="505" y="285" text-anchor="middle" fill="#5b0000" font-size="12" font-weight="700">🩸 BLOOD BANK</text>
  <text x="505" y="302" text-anchor="middle" fill="#5b0000" font-size="10">Storage · Cross-match</text>

  <!-- Pathology -->
  <rect x="425" y="323" width="160" height="51" fill="#0097a7" fill-opacity="0.25" stroke="#0097a7" stroke-width="2"/>
  <text x="505" y="343" text-anchor="middle" fill="#004d50" font-size="12" font-weight="700">PATHOLOGY</text>
  <text x="505" y="359" text-anchor="middle" fill="#004d50" font-size="10">Sample Collection · Lab</text>

  <!-- Pharmacy -->
  <rect x="590" y="264" width="175" height="110" fill="#f39c12" fill-opacity="0.28" stroke="#e67e22" stroke-width="2"/>
  <text x="677" y="308" text-anchor="middle" fill="#7d4a00" font-size="12" font-weight="700">💊 PHARMACY</text>
  <text x="677" y="325" text-anchor="middle" fill="#7d4a00" font-size="10">Dispensing Counter</text>
  <text x="677" y="341" text-anchor="middle" fill="#7d4a00" font-size="10">Medicines · Supplies</text>

  <!-- Cafeteria -->
  <rect x="770" y="264" width="200" height="110" fill="#27ae60" fill-opacity="0.25" stroke="#1e8449" stroke-width="2"/>
  <text x="870" y="308" text-anchor="middle" fill="#0a4d1f" font-size="12" font-weight="700">☕ CAFETERIA</text>
  <text x="870" y="325" text-anchor="middle" fill="#0a4d1f" font-size="10">Food &amp; Beverages</text>
  <text x="870" y="341" text-anchor="middle" fill="#0a4d1f" font-size="10">Seating · Vending</text>
  <text x="870" y="357" text-anchor="middle" fill="#0a4d1f" font-size="9">7 AM – 10 PM</text>

  <!-- ══════════════ HORIZONTAL CORRIDOR 2 ══════════════ -->
  <rect x="40" y="378" width="930" height="28" fill="#dce8f5" stroke="#2980b9" stroke-width="1"/>
  <text x="505" y="396" text-anchor="middle" fill="#1a5276" font-size="9" font-weight="600" letter-spacing="3">SERVICE CORRIDOR</text>

  <!-- ══════════════ SECTION C: OPD CONSULT ROW ══════════════ -->
  <text x="40" y="422" fill="#7f8c8d" font-size="10" font-weight="600" letter-spacing="2">OPD CONSULTATION ROOMS</text>

  <!-- Consult 1 – Cardiology -->
  <rect x="40" y="432" width="145" height="90" fill="#e74c3c" fill-opacity="0.18" stroke="#c0392b" stroke-width="1.5"/>
  <text x="112" y="468" text-anchor="middle" fill="#7b0000" font-size="11" font-weight="700">C-01</text>
  <text x="112" y="484" text-anchor="middle" fill="#7b0000" font-size="10">Cardiology</text>
  <text x="112" y="498" text-anchor="middle" fill="#7b0000" font-size="9">Dr. Consult</text>

  <!-- Consult 2 – Neurology -->
  <rect x="190" y="432" width="145" height="90" fill="#8e44ad" fill-opacity="0.22" stroke="#7d3c98" stroke-width="1.5"/>
  <text x="262" y="468" text-anchor="middle" fill="#4a1a7a" font-size="11" font-weight="700">C-02</text>
  <text x="262" y="484" text-anchor="middle" fill="#4a1a7a" font-size="10">Neurology</text>
  <text x="262" y="498" text-anchor="middle" fill="#4a1a7a" font-size="9">Dr. Consult</text>

  <!-- Consult 3 – Orthopedics -->
  <rect x="340" y="432" width="145" height="90" fill="#27ae60" fill-opacity="0.22" stroke="#1e8449" stroke-width="1.5"/>
  <text x="412" y="468" text-anchor="middle" fill="#0a4d1f" font-size="11" font-weight="700">C-03</text>
  <text x="412" y="484" text-anchor="middle" fill="#0a4d1f" font-size="10">Orthopedics</text>
  <text x="412" y="498" text-anchor="middle" fill="#0a4d1f" font-size="9">Dr. Consult</text>

  <!-- Consult 4 – Oncology -->
  <rect x="490" y="432" width="145" height="90" fill="#f39c12" fill-opacity="0.22" stroke="#e67e22" stroke-width="1.5"/>
  <text x="562" y="468" text-anchor="middle" fill="#7d4a00" font-size="11" font-weight="700">C-04</text>
  <text x="562" y="484" text-anchor="middle" fill="#7d4a00" font-size="10">Oncology</text>
  <text x="562" y="498" text-anchor="middle" fill="#7d4a00" font-size="9">Dr. Consult</text>

  <!-- Consult 5 – Urology -->
  <rect x="640" y="432" width="145" height="90" fill="#16a085" fill-opacity="0.22" stroke="#138d75" stroke-width="1.5"/>
  <text x="712" y="468" text-anchor="middle" fill="#0a4d40" font-size="11" font-weight="700">C-05</text>
  <text x="712" y="484" text-anchor="middle" fill="#0a4d40" font-size="10">Urology</text>
  <text x="712" y="498" text-anchor="middle" fill="#0a4d40" font-size="9">Dr. Consult</text>

  <!-- Consult 6 – Gastro -->
  <rect x="790" y="432" width="145" height="90" fill="#8e44ad" fill-opacity="0.18" stroke="#7d3c98" stroke-width="1.5"/>
  <text x="862" y="468" text-anchor="middle" fill="#4a1a7a" font-size="11" font-weight="700">C-06</text>
  <text x="862" y="484" text-anchor="middle" fill="#4a1a7a" font-size="10">Gastroenterology</text>
  <text x="862" y="498" text-anchor="middle" fill="#4a1a7a" font-size="9">Dr. Consult</text>

  <!-- ══════════════ SECTION D: BOTTOM ROW ══════════════ -->
  <rect x="40" y="526" width="930" height="28" fill="#dce8f5" stroke="#2980b9" stroke-width="1"/>
  <text x="505" y="544" text-anchor="middle" fill="#1a5276" font-size="9" font-weight="600" letter-spacing="3">LOWER CORRIDOR — GROUND FLOOR</text>

  <!-- Waiting -->
  <rect x="40" y="558" width="200" height="110" fill="#bdc3c7" fill-opacity="0.4" stroke="#95a5a6" stroke-width="1.5"/>
  <text x="140" y="607" text-anchor="middle" fill="#2c3e50" font-size="12" font-weight="700">WAITING AREA</text>
  <text x="140" y="624" text-anchor="middle" fill="#2c3e50" font-size="10">Seating · TV · ACs</text>

  <!-- WC M -->
  <rect x="245" y="558" width="80" height="55" fill="url(#hatch)" stroke="#7f8c8d" stroke-width="1.5"/>
  <text x="285" y="583" text-anchor="middle" fill="#2c3e50" font-size="11" font-weight="700">WC</text>
  <text x="285" y="598" text-anchor="middle" fill="#2c3e50" font-size="10">♂ Male</text>

  <!-- WC F -->
  <rect x="245" y="617" width="80" height="51" fill="url(#hatch)" stroke="#7f8c8d" stroke-width="1.5"/>
  <text x="285" y="639" text-anchor="middle" fill="#2c3e50" font-size="11" font-weight="700">WC</text>
  <text x="285" y="654" text-anchor="middle" fill="#2c3e50" font-size="10">♀ Female</text>

  <!-- Medical Store -->
  <rect x="330" y="558" width="180" height="110" fill="#f39c12" fill-opacity="0.2" stroke="#e67e22" stroke-width="1.5"/>
  <text x="420" y="607" text-anchor="middle" fill="#7d4a00" font-size="12" font-weight="700">MEDICAL STORE</text>
  <text x="420" y="624" text-anchor="middle" fill="#7d4a00" font-size="10">Equipment · Supplies</text>

  <!-- Lift block -->
  <rect x="515" y="558" width="75" height="110" fill="#2c3e50" fill-opacity="0.3" stroke="#2c3e50" stroke-width="2"/>
  <text x="552" y="601" text-anchor="middle" fill="white" font-size="12" font-weight="700">🛗</text>
  <text x="552" y="618" text-anchor="middle" fill="white" font-size="10">LIFTS</text>
  <text x="552" y="633" text-anchor="middle" fill="#bdc3c7" font-size="9">1–3</text>

  <!-- Staircase Left -->
  <rect x="595" y="558" width="100" height="110" fill="#95a5a6" fill-opacity="0.3" stroke="#7f8c8d" stroke-width="1.5" stroke-dasharray="5,3"/>
  <!-- stair hatching lines -->
  <line x1="595" y1="568" x2="695" y2="568" stroke="#7f8c8d" stroke-width="0.7"/>
  <line x1="595" y1="578" x2="695" y2="578" stroke="#7f8c8d" stroke-width="0.7"/>
  <line x1="595" y1="588" x2="695" y2="588" stroke="#7f8c8d" stroke-width="0.7"/>
  <line x1="595" y1="598" x2="695" y2="598" stroke="#7f8c8d" stroke-width="0.7"/>
  <line x1="595" y1="608" x2="695" y2="608" stroke="#7f8c8d" stroke-width="0.7"/>
  <line x1="595" y1="618" x2="695" y2="618" stroke="#7f8c8d" stroke-width="0.7"/>
  <line x1="595" y1="628" x2="695" y2="628" stroke="#7f8c8d" stroke-width="0.7"/>
  <line x1="595" y1="638" x2="695" y2="638" stroke="#7f8c8d" stroke-width="0.7"/>
  <line x1="595" y1="648" x2="695" y2="648" stroke="#7f8c8d" stroke-width="0.7"/>
  <text x="645" y="617" text-anchor="middle" fill="#2c3e50" font-size="10" font-weight="700">STAIRCASE</text>
  <text x="645" y="632" text-anchor="middle" fill="#2c3e50" font-size="9">Fire Exit (L)</text>

  <!-- Admin Office -->
  <rect x="700" y="558" width="155" height="110" fill="#bdc3c7" fill-opacity="0.35" stroke="#95a5a6" stroke-width="1.5"/>
  <text x="777" y="607" text-anchor="middle" fill="#2c3e50" font-size="12" font-weight="700">ADMIN OFFICE</text>
  <text x="777" y="624" text-anchor="middle" fill="#2c3e50" font-size="10">Records · HR · Finance</text>

  <!-- Staircase Right -->
  <rect x="860" y="558" width="110" height="110" fill="#95a5a6" fill-opacity="0.3" stroke="#7f8c8d" stroke-width="1.5" stroke-dasharray="5,3"/>
  <line x1="860" y1="568" x2="970" y2="568" stroke="#7f8c8d" stroke-width="0.7"/>
  <line x1="860" y1="578" x2="970" y2="578" stroke="#7f8c8d" stroke-width="0.7"/>
  <line x1="860" y1="588" x2="970" y2="588" stroke="#7f8c8d" stroke-width="0.7"/>
  <line x1="860" y1="598" x2="970" y2="598" stroke="#7f8c8d" stroke-width="0.7"/>
  <line x1="860" y1="608" x2="970" y2="608" stroke="#7f8c8d" stroke-width="0.7"/>
  <line x1="860" y1="618" x2="970" y2="618" stroke="#7f8c8d" stroke-width="0.7"/>
  <line x1="860" y1="628" x2="970" y2="628" stroke="#7f8c8d" stroke-width="0.7"/>
  <line x1="860" y1="638" x2="970" y2="638" stroke="#7f8c8d" stroke-width="0.7"/>
  <line x1="860" y1="648" x2="970" y2="648" stroke="#7f8c8d" stroke-width="0.7"/>
  <text x="915" y="617" text-anchor="middle" fill="#2c3e50" font-size="10" font-weight="700">STAIRCASE</text>
  <text x="915" y="632" text-anchor="middle" fill="#2c3e50" font-size="9">Fire Exit (R)</text>

  <!-- ══════════════ LEGEND ══════════════ -->
  <rect x="30" y="678" width="1040" height="62" fill="#1a3a5c" rx="3"/>
  <text x="55" y="696" fill="#aed6f1" font-size="9" font-weight="700" letter-spacing="2">LEGEND</text>
  <!-- swatches -->
  <rect x="55" y="703" width="12" height="12" fill="#c8a2c8" stroke="#7b2d8b" stroke-width="1"/>
  <text x="72" y="714" fill="white" font-size="9">Reception / Admin</text>
  <rect x="175" y="703" width="12" height="12" fill="#e74c3c" fill-opacity="0.5" stroke="#c0392b" stroke-width="1"/>
  <text x="192" y="714" fill="white" font-size="9">Emergency</text>
  <rect x="290" y="703" width="12" height="12" fill="#3498db" fill-opacity="0.5" stroke="#2980b9" stroke-width="1"/>
  <text x="307" y="714" fill="white" font-size="9">Radiology / Imaging</text>
  <rect x="430" y="703" width="12" height="12" fill="#922b21" fill-opacity="0.5" stroke="#922b21" stroke-width="1"/>
  <text x="447" y="714" fill="white" font-size="9">Blood Bank</text>
  <rect x="540" y="703" width="12" height="12" fill="#f39c12" fill-opacity="0.5" stroke="#e67e22" stroke-width="1"/>
  <text x="557" y="714" fill="white" font-size="9">Pharmacy / Store</text>
  <rect x="660" y="703" width="12" height="12" fill="#27ae60" fill-opacity="0.5" stroke="#1e8449" stroke-width="1"/>
  <text x="677" y="714" fill="white" font-size="9">Cafeteria</text>
  <rect x="750" y="703" width="12" height="12" fill="#95a5a6" fill-opacity="0.5" stroke="#7f8c8d" stroke-width="1"/>
  <text x="767" y="714" fill="white" font-size="9">Utility / WC / Stairs</text>
  <rect x="880" y="703" width="12" height="12" fill="#dce8f5" stroke="#2980b9" stroke-width="1"/>
  <text x="897" y="714" fill="white" font-size="9">Corridor</text>

  <!-- Door markers -->
  <!-- Main door arc -->
  <path d="M 195 220 A 30 30 0 0 1 165 220" fill="none" stroke="#2c3e50" stroke-width="2"/>
  <line x1="165" y1="220" x2="165" y2="225" stroke="#2c3e50" stroke-width="2"/>
  <line x1="195" y1="220" x2="195" y2="225" stroke="#2c3e50" stroke-width="2"/>
</svg>
