<svg xmlns="http://www.w3.org/2000/svg" viewBox="0 0 900 540" width="900" height="540">
  <rect width="900" height="540" fill="#f8fafc"/>
  <text x="450" y="22" text-anchor="middle" font-size="13" font-weight="500" fill="#1a3a5c">First Floor — Ruby Hall Clinic</text>
  <rect x="40" y="175" width="810" height="28" fill="#dce8f5" stroke="#2980b9" stroke-width="1"/>
  <text x="445" y="193" text-anchor="middle" font-size="9" fill="#1a5276" font-weight="600" letter-spacing="2">MAIN CORRIDOR 1F</text>
  <rect x="40" y="365" width="810" height="28" fill="#dce8f5" stroke="#2980b9" stroke-width="1"/>
  <text x="445" y="383" text-anchor="middle" font-size="9" fill="#1a5276" font-weight="600" letter-spacing="2">LOWER CORRIDOR 1F</text>
  <rect x="830" y="30" width="20" height="470" fill="#dce8f5" stroke="#2980b9" stroke-width="1"/>
  <rect x="40" y="30" width="175" height="140" fill="#fcc" stroke="#c0392b" stroke-width="1.5" rx="4"/>
  <text x="127" y="97" text-anchor="middle" font-size="11" font-weight="500" fill="#2c3e50">Cardiology</text>
  <rect x="225" y="30" width="190" height="140" fill="#e8d5f5" stroke="#7d3c98" stroke-width="1.5" rx="4"/>
  <text x="320" y="97" text-anchor="middle" font-size="11" font-weight="500" fill="#2c3e50">Neurology</text>
  <rect x="425" y="30" width="175" height="140" fill="#d5f0dc" stroke="#1e8449" stroke-width="1.5" rx="4"/>
  <text x="512" y="97" text-anchor="middle" font-size="11" font-weight="500" fill="#2c3e50">Orthopaedics</text>
  <rect x="610" y="30" width="170" height="140" fill="#fde8c0" stroke="#e67e22" stroke-width="1.5" rx="4"/>
  <text x="695" y="97" text-anchor="middle" font-size="11" font-weight="500" fill="#2c3e50">Oncology</text>
  <rect x="40" y="240" width="210" height="120" fill="#fde8c0" stroke="#e67e22" stroke-width="1.5" rx="4"/>
  <text x="145" y="297" text-anchor="middle" font-size="11" font-weight="500" fill="#2c3e50">Physiotherapy</text>
  <rect x="260" y="240" width="200" height="120" fill="#d5f0dc" stroke="#1e8449" stroke-width="1.5" rx="4"/>
  <text x="360" y="297" text-anchor="middle" font-size="11" font-weight="500" fill="#2c3e50">Gen</text>
  <text x="360" y="312" text-anchor="middle" font-size="11" fill="#2c3e50">Wards</text>
  <rect x="470" y="240" width="175" height="120" fill="#fcc" stroke="#c0392b" stroke-width="1.5" rx="4"/>
  <text x="557" y="297" text-anchor="middle" font-size="11" font-weight="500" fill="#2c3e50">HDU</text>
  <rect x="655" y="240" width="65" height="60" fill="#2c3e50" stroke="#2c3e50" stroke-width="1.5" rx="4"/>
  <text x="687" y="267" text-anchor="middle" font-size="11" font-weight="500" fill="#fff">Lifts</text>
  <rect x="655" y="305" width="65" height="55" fill="#ccc" stroke="#7f8c8d" stroke-width="1.5" rx="4"/>
  <text x="687" y="329" text-anchor="middle" font-size="11" font-weight="500" fill="#2c3e50">Stairs</text>
  <rect x="730" y="240" width="120" height="120" fill="#dce8f5" stroke="#2980b9" stroke-width="1.5" rx="4"/>
  <text x="790" y="297" text-anchor="middle" font-size="11" font-weight="500" fill="#2c3e50">Nurses</text>
  <text x="790" y="312" text-anchor="middle" font-size="11" fill="#2c3e50">Stn</text>
  <rect x="40" y="430" width="80" height="70" fill="#ddd" stroke="#7f8c8d" stroke-width="1.5" rx="4"/>
  <text x="80" y="462" text-anchor="middle" font-size="11" font-weight="500" fill="#2c3e50">Toilets</text>
  <rect x="130" y="430" width="160" height="70" fill="#dce8f5" stroke="#2980b9" stroke-width="1.5" rx="4"/>
  <text x="210" y="462" text-anchor="middle" font-size="11" font-weight="500" fill="#2c3e50">Conference</text>
  <rect x="300" y="430" width="155" height="70" fill="#f5c6c6" stroke="#922b21" stroke-width="1.5" rx="4"/>
  <text x="377" y="462" text-anchor="middle" font-size="11" font-weight="500" fill="#2c3e50">Blood</text>
  <text x="377" y="477" text-anchor="middle" font-size="11" fill="#2c3e50">Coll.</text>
  <rect x="465" y="430" width="135" height="70" fill="#fde8c0" stroke="#e67e22" stroke-width="1.5" rx="4"/>
  <text x="532" y="462" text-anchor="middle" font-size="11" font-weight="500" fill="#2c3e50">Pharmacy</text>
  <text x="532" y="477" text-anchor="middle" font-size="11" fill="#2c3e50">1F</text>
  <rect x="610" y="430" width="100" height="70" fill="#ddd" stroke="#95a5a6" stroke-width="1.5" rx="4"/>
  <text x="660" y="462" text-anchor="middle" font-size="11" font-weight="500" fill="#2c3e50">Staff</text>
  <text x="660" y="477" text-anchor="middle" font-size="11" fill="#2c3e50">Rest</text>
  <rect x="720" y="430" width="130" height="70" fill="#ddd" stroke="#95a5a6" stroke-width="1.5" rx="4"/>
  <text x="785" y="462" text-anchor="middle" font-size="11" font-weight="500" fill="#2c3e50">Store</text>
</svg>