<svg xmlns="http://www.w3.org/2000/svg" viewBox="0 0 900 540" width="900" height="540">
  <rect width="900" height="540" fill="#f8fafc"/>
  <text x="450" y="22" text-anchor="middle" font-size="13" font-weight="500" fill="#1a3a5c">Second Floor — Ruby Hall Clinic</text>
  <rect x="40" y="175" width="810" height="28" fill="#dce8f5" stroke="#2980b9" stroke-width="1"/>
  <text x="445" y="193" text-anchor="middle" font-size="9" fill="#1a5276" font-weight="600" letter-spacing="2">MAIN CORRIDOR 2F</text>
  <rect x="40" y="365" width="810" height="28" fill="#dce8f5" stroke="#2980b9" stroke-width="1"/>
  <text x="445" y="383" text-anchor="middle" font-size="9" fill="#1a5276" font-weight="600" letter-spacing="2">LOWER CORRIDOR 2F</text>
  <rect x="830" y="30" width="20" height="470" fill="#dce8f5" stroke="#2980b9" stroke-width="1"/>
  <rect x="40" y="30" width="165" height="140" fill="#e8d5f5" stroke="#7d3c98" stroke-width="1.5" rx="4"/>
  <text x="122" y="97" text-anchor="middle" font-size="11" font-weight="500" fill="#2c3e50">Neurosurgery</text>
  <rect x="215" y="30" width="180" height="140" fill="#fde8c0" stroke="#e67e22" stroke-width="1.5" rx="4"/>
  <text x="305" y="97" text-anchor="middle" font-size="11" font-weight="500" fill="#2c3e50">Oncology</text>
  <rect x="405" y="30" width="185" height="140" fill="#fcc" stroke="#c0392b" stroke-width="1.5" rx="4"/>
  <text x="497" y="97" text-anchor="middle" font-size="11" font-weight="500" fill="#2c3e50">Cardiac</text>
  <text x="497" y="112" text-anchor="middle" font-size="11" fill="#2c3e50">Surg</text>
  <rect x="600" y="30" width="130" height="140" fill="#fcc" stroke="#c0392b" stroke-width="1.5" rx="4"/>
  <text x="665" y="97" text-anchor="middle" font-size="11" font-weight="500" fill="#2c3e50">Cath</text>
  <text x="665" y="112" text-anchor="middle" font-size="11" fill="#2c3e50">Lab</text>
  <rect x="40" y="240" width="130" height="120" fill="#d5f0dc" stroke="#1e8449" stroke-width="1.5" rx="4"/>
  <text x="105" y="297" text-anchor="middle" font-size="11" font-weight="500" fill="#2c3e50">OT-1</text>
  <rect x="180" y="240" width="130" height="120" fill="#d5f0dc" stroke="#1e8449" stroke-width="1.5" rx="4"/>
  <text x="245" y="297" text-anchor="middle" font-size="11" font-weight="500" fill="#2c3e50">OT-2</text>
  <rect x="320" y="240" width="130" height="120" fill="#d5f0dc" stroke="#1e8449" stroke-width="1.5" rx="4"/>
  <text x="385" y="297" text-anchor="middle" font-size="11" font-weight="500" fill="#2c3e50">OT-3</text>
  <rect x="460" y="240" width="175" height="120" fill="#fcc" stroke="#c0392b" stroke-width="1.5" rx="4"/>
  <text x="547" y="297" text-anchor="middle" font-size="11" font-weight="500" fill="#2c3e50">ICU</text>
  <rect x="645" y="240" width="65" height="60" fill="#2c3e50" stroke="#2c3e50" stroke-width="1.5" rx="4"/>
  <text x="677" y="267" text-anchor="middle" font-size="11" font-weight="500" fill="#fff">Lifts</text>
  <rect x="645" y="305" width="65" height="55" fill="#ccc" stroke="#7f8c8d" stroke-width="1.5" rx="4"/>
  <text x="677" y="329" text-anchor="middle" font-size="11" font-weight="500" fill="#2c3e50">Stairs</text>
  <rect x="720" y="240" width="130" height="120" fill="#dce8f5" stroke="#2980b9" stroke-width="1.5" rx="4"/>
  <text x="785" y="297" text-anchor="middle" font-size="11" font-weight="500" fill="#2c3e50">Nurses</text>
  <text x="785" y="312" text-anchor="middle" font-size="11" fill="#2c3e50">Stn</text>
  <rect x="40" y="430" width="175" height="70" fill="#dce8f5" stroke="#2980b9" stroke-width="1.5" rx="4"/>
  <text x="127" y="462" text-anchor="middle" font-size="11" font-weight="500" fill="#2c3e50">Priv</text>
  <text x="127" y="477" text-anchor="middle" font-size="11" fill="#2c3e50">Rooms</text>
  <rect x="225" y="430" width="150" height="70" fill="#ddd" stroke="#95a5a6" stroke-width="1.5" rx="4"/>
  <text x="300" y="462" text-anchor="middle" font-size="11" font-weight="500" fill="#2c3e50">CSSD</text>
  <rect x="385" y="430" width="150" height="70" fill="#e8d5f5" stroke="#7d3c98" stroke-width="1.5" rx="4"/>
  <text x="460" y="462" text-anchor="middle" font-size="11" font-weight="500" fill="#2c3e50">Dr</text>
  <text x="460" y="477" text-anchor="middle" font-size="11" fill="#2c3e50">Lounge</text>
  <rect x="545" y="430" width="75" height="70" fill="#ddd" stroke="#7f8c8d" stroke-width="1.5" rx="4"/>
  <text x="582" y="462" text-anchor="middle" font-size="11" font-weight="500" fill="#2c3e50">Toilets</text>
  <rect x="630" y="430" width="100" height="70" fill="#ddd" stroke="#95a5a6" stroke-width="1.5" rx="4"/>
  <text x="680" y="462" text-anchor="middle" font-size="11" font-weight="500" fill="#2c3e50">On-Call</text>
  <rect x="740" y="430" width="110" height="70" fill="#fde8c0" stroke="#e67e22" stroke-width="1.5" rx="4"/>
  <text x="795" y="462" text-anchor="middle" font-size="11" font-weight="500" fill="#2c3e50">Store</text>
  <text x="795" y="477" text-anchor="middle" font-size="11" fill="#2c3e50">2F</text>
</svg>