<svg xmlns="http://www.w3.org/2000/svg" viewBox="0 0 900 540" width="900" height="540">
  <rect width="900" height="540" fill="#f8fafc"/>
  <text x="450" y="22" text-anchor="middle" font-size="13" font-weight="500" fill="#1a3a5c">Ground Floor — Ruby Hall Clinic</text>
  <rect x="40" y="105" width="810" height="30" fill="#dce8f5" stroke="#2980b9" stroke-width="1"/>
  <text x="445" y="124" text-anchor="middle" font-size="9" fill="#1a5276" font-weight="600" letter-spacing="2">MAIN ENTRANCE CORRIDOR</text>
  <rect x="40" y="270" width="810" height="28" fill="#dce8f5" stroke="#2980b9" stroke-width="1"/>
  <text x="445" y="288" text-anchor="middle" font-size="9" fill="#1a5276" font-weight="600" letter-spacing="2">SERVICE CORRIDOR</text>
  <rect x="40" y="425" width="810" height="25" fill="#dce8f5" stroke="#2980b9" stroke-width="1"/>
  <text x="445" y="441" text-anchor="middle" font-size="9" fill="#1a5276" font-weight="600" letter-spacing="2">LOWER CORRIDOR</text>
  <rect x="830" y="30" width="20" height="495" fill="#dce8f5" stroke="#2980b9" stroke-width="1"/>
  <rect x="40" y="30" width="180" height="70" fill="#dce8f5" stroke="#2980b9" stroke-width="1.5" rx="4"/>
  <text x="130" y="62" text-anchor="middle" font-size="11" font-weight="500" fill="#2c3e50">Main</text>
  <text x="130" y="77" text-anchor="middle" font-size="11" fill="#2c3e50">Entrance</text>
  <rect x="230" y="30" width="150" height="70" fill="#c8a2c8" stroke="#7b2d8b" stroke-width="1.5" rx="4"/>
  <text x="305" y="62" text-anchor="middle" font-size="11" font-weight="500" fill="#2c3e50">OPD</text>
  <text x="305" y="77" text-anchor="middle" font-size="11" fill="#2c3e50">Reg</text>
  <rect x="390" y="30" width="180" height="70" fill="#fcc" stroke="#c0392b" stroke-width="1.5" rx="4"/>
  <text x="480" y="62" text-anchor="middle" font-size="11" font-weight="500" fill="#2c3e50">Emergency</text>
  <rect x="580" y="30" width="130" height="70" fill="#fcc" stroke="#c0392b" stroke-width="1.5" rx="4"/>
  <text x="645" y="62" text-anchor="middle" font-size="11" font-weight="500" fill="#2c3e50">Ambulance</text>
  <text x="645" y="77" text-anchor="middle" font-size="11" fill="#2c3e50">Bay</text>
  <rect x="720" y="30" width="130" height="70" fill="#ddd" stroke="#7f8c8d" stroke-width="1.5" rx="4"/>
  <text x="785" y="62" text-anchor="middle" font-size="11" font-weight="500" fill="#2c3e50">Security</text>
  <rect x="40" y="175" width="160" height="90" fill="#fcc" stroke="#c0392b" stroke-width="1.5" rx="4"/>
  <text x="120" y="217" text-anchor="middle" font-size="11" font-weight="500" fill="#2c3e50">Cardiology</text>
  <rect x="210" y="175" width="175" height="90" fill="#d4eaf7" stroke="#2980b9" stroke-width="1.5" rx="4"/>
  <text x="297" y="217" text-anchor="middle" font-size="11" font-weight="500" fill="#2c3e50">Radiology</text>
  <rect x="395" y="175" width="140" height="45" fill="#f5c6c6" stroke="#922b21" stroke-width="1.5" rx="4"/>
  <text x="465" y="194" text-anchor="middle" font-size="11" font-weight="500" fill="#2c3e50">Blood</text>
  <text x="465" y="209" text-anchor="middle" font-size="11" fill="#2c3e50">Bank</text>
  <rect x="395" y="225" width="140" height="40" fill="#c8f0f0" stroke="#0097a7" stroke-width="1.5" rx="4"/>
  <text x="465" y="242" text-anchor="middle" font-size="11" font-weight="500" fill="#2c3e50">Pathology</text>
  <rect x="545" y="175" width="155" height="90" fill="#fde8c0" stroke="#e67e22" stroke-width="1.5" rx="4"/>
  <text x="622" y="217" text-anchor="middle" font-size="11" font-weight="500" fill="#2c3e50">Pharmacy</text>
  <rect x="710" y="175" width="140" height="90" fill="#d5f0dc" stroke="#1e8449" stroke-width="1.5" rx="4"/>
  <text x="780" y="217" text-anchor="middle" font-size="11" font-weight="500" fill="#2c3e50">Cafeteria</text>
  <rect x="40" y="340" width="120" height="80" fill="#fcc" stroke="#c0392b" stroke-width="1.5" rx="4"/>
  <text x="100" y="377" text-anchor="middle" font-size="11" font-weight="500" fill="#2c3e50">C-01</text>
  <text x="100" y="392" text-anchor="middle" font-size="11" fill="#2c3e50">Cardio</text>
  <rect x="170" y="340" width="120" height="80" fill="#e8d5f5" stroke="#7d3c98" stroke-width="1.5" rx="4"/>
  <text x="230" y="377" text-anchor="middle" font-size="11" font-weight="500" fill="#2c3e50">C-02</text>
  <text x="230" y="392" text-anchor="middle" font-size="11" fill="#2c3e50">Neuro</text>
  <rect x="300" y="340" width="120" height="80" fill="#d5f0dc" stroke="#1e8449" stroke-width="1.5" rx="4"/>
  <text x="360" y="377" text-anchor="middle" font-size="11" font-weight="500" fill="#2c3e50">C-03</text>
  <text x="360" y="392" text-anchor="middle" font-size="11" fill="#2c3e50">Ortho</text>
  <rect x="430" y="340" width="120" height="80" fill="#fde8c0" stroke="#e67e22" stroke-width="1.5" rx="4"/>
  <text x="490" y="377" text-anchor="middle" font-size="11" font-weight="500" fill="#2c3e50">C-04</text>
  <text x="490" y="392" text-anchor="middle" font-size="11" fill="#2c3e50">Onco</text>
  <rect x="560" y="340" width="120" height="80" fill="#c8f0f0" stroke="#138d75" stroke-width="1.5" rx="4"/>
  <text x="620" y="377" text-anchor="middle" font-size="11" font-weight="500" fill="#2c3e50">C-05</text>
  <text x="620" y="392" text-anchor="middle" font-size="11" fill="#2c3e50">Urology</text>
  <rect x="690" y="340" width="120" height="80" fill="#e8d5f5" stroke="#7d3c98" stroke-width="1.5" rx="4"/>
  <text x="750" y="377" text-anchor="middle" font-size="11" font-weight="500" fill="#2c3e50">C-06</text>
  <text x="750" y="392" text-anchor="middle" font-size="11" fill="#2c3e50">Gastro</text>
  <rect x="40" y="450" width="170" height="75" fill="#eee" stroke="#95a5a6" stroke-width="1.5" rx="4"/>
  <text x="125" y="484" text-anchor="middle" font-size="11" font-weight="500" fill="#2c3e50">Waiting</text>
  <text x="125" y="499" text-anchor="middle" font-size="11" fill="#2c3e50">Area</text>
  <rect x="220" y="450" width="75" height="75" fill="#ddd" stroke="#7f8c8d" stroke-width="1.5" rx="4"/>
  <text x="257" y="484" text-anchor="middle" font-size="11" font-weight="500" fill="#2c3e50">Toilets</text>
  <rect x="305" y="450" width="155" height="75" fill="#fde8c0" stroke="#e67e22" stroke-width="1.5" rx="4"/>
  <text x="382" y="484" text-anchor="middle" font-size="11" font-weight="500" fill="#2c3e50">Med</text>
  <text x="382" y="499" text-anchor="middle" font-size="11" fill="#2c3e50">Store</text>
  <rect x="470" y="450" width="65" height="75" fill="#2c3e50" stroke="#2c3e50" stroke-width="1.5" rx="4"/>
  <text x="502" y="484" text-anchor="middle" font-size="11" font-weight="500" fill="#fff">Lifts</text>
  <rect x="545" y="450" width="90" height="75" fill="#ccc" stroke="#7f8c8d" stroke-width="1.5" rx="4"/>
  <text x="590" y="484" text-anchor="middle" font-size="11" font-weight="500" fill="#2c3e50">Stairs</text>
  <rect x="645" y="450" width="135" height="75" fill="#ddd" stroke="#95a5a6" stroke-width="1.5" rx="4"/>
  <text x="712" y="484" text-anchor="middle" font-size="11" font-weight="500" fill="#2c3e50">Admin</text>
  <text x="712" y="499" text-anchor="middle" font-size="11" fill="#2c3e50">Office</text>
</svg>