<svg xmlns="http://www.w3.org/2000/svg" width="1100" height="750" viewBox="0 0 1100 750" font-family="'Segoe UI', Arial, sans-serif">
  <defs>
    <pattern id="hatch" width="6" height="6" patternUnits="userSpaceOnUse" patternTransform="rotate(45)">
      <line x1="0" y1="0" x2="0" y2="6" stroke="#b0c4de" stroke-width="1" opacity="0.4"/>
    </pattern>
    <pattern id="stair" width="10" height="10" patternUnits="userSpaceOnUse">
      <line x1="0" y1="5" x2="10" y2="5" stroke="#95a5a6" stroke-width="1"/>
    </pattern>
  </defs>

  <!-- Background -->
  <rect width="1100" height="750" fill="#f0f4f8"/>
  <!-- Outer wall -->
  <rect x="30" y="60" width="1040" height="660" fill="#e8edf2" stroke="#2c3e50" stroke-width="5" rx="4"/>

  <!-- Title bar -->
  <rect x="30" y="10" width="1040" height="45" fill="#1a3a5c" rx="3"/>
  <text x="550" y="36" text-anchor="middle" fill="white" font-size="16" font-weight="700" letter-spacing="3">RUBY HALL CLINIC, PUNE  ·  SECOND FLOOR PLAN  (2)</text>
  <text x="1060" y="80" text-anchor="end" fill="#7f8c8d" font-size="10" font-style="italic">↑ N</text>

  <!-- ══════════════ TOP ROW ══════════════ -->

  <!-- NEUROLOGY WARD & NEURO ICU -->
  <rect x="40" y="70" width="300" height="250" fill="#7e57c2" fill-opacity="0.22" stroke="#4527a0" stroke-width="2.5"/>
  <text x="190" y="92" text-anchor="middle" fill="#1a005e" font-size="13" font-weight="700">NEUROLOGY WARD</text>
  <text x="190" y="108" text-anchor="middle" fill="#1a005e" font-size="11">&amp; NEURO ICU</text>

  <!-- Neuro Beds N1–N6 -->
  <rect x="48"  y="118" width="42" height="26" fill="#9575cd" fill-opacity="0.6" stroke="#5e35b1" stroke-width="1" rx="3"/>
  <text x="69"  y="135" text-anchor="middle" fill="white" font-size="8">N1</text>
  <rect x="96"  y="118" width="42" height="26" fill="#9575cd" fill-opacity="0.6" stroke="#5e35b1" stroke-width="1" rx="3"/>
  <text x="117" y="135" text-anchor="middle" fill="white" font-size="8">N2</text>
  <rect x="144" y="118" width="42" height="26" fill="#9575cd" fill-opacity="0.6" stroke="#5e35b1" stroke-width="1" rx="3"/>
  <text x="165" y="135" text-anchor="middle" fill="white" font-size="8">N3</text>
  <rect x="192" y="118" width="42" height="26" fill="#9575cd" fill-opacity="0.6" stroke="#5e35b1" stroke-width="1" rx="3"/>
  <text x="213" y="135" text-anchor="middle" fill="white" font-size="8">N4</text>
  <rect x="240" y="118" width="42" height="26" fill="#9575cd" fill-opacity="0.6" stroke="#5e35b1" stroke-width="1" rx="3"/>
  <text x="261" y="135" text-anchor="middle" fill="white" font-size="8">N5</text>
  <rect x="288" y="118" width="42" height="26" fill="#9575cd" fill-opacity="0.6" stroke="#5e35b1" stroke-width="1" rx="3"/>
  <text x="309" y="135" text-anchor="middle" fill="white" font-size="8">N6</text>

  <!-- NEURO ICU row -->
  <rect x="40" y="152" width="300" height="2" fill="#4527a0" opacity="0.4"/>
  <text x="50" y="167" fill="#4527a0" font-size="9" font-style="italic">— NEURO ICU —</text>
  <rect x="48"  y="172" width="42" height="26" fill="#512da8" fill-opacity="0.55" stroke="#311b92" stroke-width="1" rx="3"/>
  <text x="69"  y="189" text-anchor="middle" fill="white" font-size="8">NI1</text>
  <rect x="96"  y="172" width="42" height="26" fill="#512da8" fill-opacity="0.55" stroke="#311b92" stroke-width="1" rx="3"/>
  <text x="117" y="189" text-anchor="middle" fill="white" font-size="8">NI2</text>
  <rect x="144" y="172" width="42" height="26" fill="#512da8" fill-opacity="0.55" stroke="#311b92" stroke-width="1" rx="3"/>
  <text x="165" y="189" text-anchor="middle" fill="white" font-size="8">NI3</text>
  <rect x="192" y="172" width="42" height="26" fill="#512da8" fill-opacity="0.55" stroke="#311b92" stroke-width="1" rx="3"/>
  <text x="213" y="189" text-anchor="middle" fill="white" font-size="8">NI4</text>
  <rect x="240" y="172" width="42" height="26" fill="#512da8" fill-opacity="0.55" stroke="#311b92" stroke-width="1" rx="3"/>
  <text x="261" y="189" text-anchor="middle" fill="white" font-size="8">NI5</text>
  <rect x="288" y="172" width="42" height="26" fill="#512da8" fill-opacity="0.55" stroke="#311b92" stroke-width="1" rx="3"/>
  <text x="309" y="189" text-anchor="middle" fill="white" font-size="8">NI6</text>

  <!-- Neuro Nurse Station -->
  <rect x="48" y="210" width="120" height="50" fill="#00897b" fill-opacity="0.45" stroke="#00695c" stroke-width="2"/>
  <text x="108" y="231" text-anchor="middle" fill="white" font-size="10" font-weight="700">NURSE STATION</text>
  <text x="108" y="247" text-anchor="middle" fill="white" font-size="9">Neurology</text>
  <!-- Neuro ICU Store -->
  <rect x="175" y="210" width="155" height="50" fill="#7986cb" fill-opacity="0.4" stroke="#3949ab" stroke-width="1.5"/>
  <text x="252" y="231" text-anchor="middle" fill="#1a237e" font-size="10" font-weight="700">NEURO ICU STORE</text>
  <text x="252" y="247" text-anchor="middle" fill="#1a237e" font-size="9">Equipment · Meds</text>

  <!-- Doctor + Attendant Rooms -->
  <rect x="48" y="270" width="130" height="42" fill="#b0bec5" fill-opacity="0.45" stroke="#78909c" stroke-width="1.5"/>
  <text x="113" y="289" text-anchor="middle" fill="#2c3e50" font-size="10" font-weight="700">DOCTOR ROOM</text>
  <text x="113" y="303" text-anchor="middle" fill="#2c3e50" font-size="9">Neuro Residents</text>
  <rect x="185" y="270" width="145" height="42" fill="#b0bec5" fill-opacity="0.45" stroke="#78909c" stroke-width="1.5"/>
  <text x="257" y="289" text-anchor="middle" fill="#2c3e50" font-size="10" font-weight="700">ATTENDANT ROOM</text>
  <text x="257" y="303" text-anchor="middle" fill="#2c3e50" font-size="9">Family Lounge</text>

  <!-- NEUROSURGERY -->
  <rect x="347" y="70" width="260" height="250" fill="#5c6bc0" fill-opacity="0.22" stroke="#283593" stroke-width="2.5"/>
  <text x="477" y="92" text-anchor="middle" fill="#0d1a5c" font-size="13" font-weight="700">NEUROSURGERY</text>
  <text x="477" y="108" text-anchor="middle" fill="#0d1a5c" font-size="10">OPD · Ward · Neuro OT</text>

  <!-- Neuro Ward Beds -->
  <rect x="355" y="118" width="42" height="26" fill="#7986cb" fill-opacity="0.6" stroke="#3949ab" stroke-width="1" rx="3"/>
  <text x="376" y="135" text-anchor="middle" fill="white" font-size="8">NS1</text>
  <rect x="403" y="118" width="42" height="26" fill="#7986cb" fill-opacity="0.6" stroke="#3949ab" stroke-width="1" rx="3"/>
  <text x="424" y="135" text-anchor="middle" fill="white" font-size="8">NS2</text>
  <rect x="451" y="118" width="42" height="26" fill="#7986cb" fill-opacity="0.6" stroke="#3949ab" stroke-width="1" rx="3"/>
  <text x="472" y="135" text-anchor="middle" fill="white" font-size="8">NS3</text>
  <rect x="499" y="118" width="42" height="26" fill="#7986cb" fill-opacity="0.6" stroke="#3949ab" stroke-width="1" rx="3"/>
  <text x="520" y="135" text-anchor="middle" fill="white" font-size="8">NS4</text>
  <rect x="547" y="118" width="52" height="26" fill="#7986cb" fill-opacity="0.6" stroke="#3949ab" stroke-width="1" rx="3"/>
  <text x="573" y="135" text-anchor="middle" fill="white" font-size="8">NS5</text>

  <!-- Neuro OT -->
  <rect x="355" y="160" width="245" height="90" fill="#3949ab" fill-opacity="0.25" stroke="#283593" stroke-width="2"/>
  <text x="477" y="197" text-anchor="middle" fill="#0d1a5c" font-size="12" font-weight="700">NEURO-OT</text>
  <text x="477" y="214" text-anchor="middle" fill="#0d1a5c" font-size="10">Brain &amp; Spine Surgery</text>
  <text x="477" y="230" text-anchor="middle" fill="#0d1a5c" font-size="9">Sterile Zone — No Entry</text>

  <!-- Neuro OPD -->
  <rect x="355" y="258" width="245" height="55" fill="#9fa8da" fill-opacity="0.4" stroke="#3949ab" stroke-width="1.5"/>
  <text x="477" y="280" text-anchor="middle" fill="#0d1a5c" font-size="11" font-weight="700">NEUROSURGERY OPD</text>
  <text x="477" y="297" text-anchor="middle" fill="#0d1a5c" font-size="9">Consultations · Pre-Op Assessment</text>

  <!-- ONCOLOGY -->
  <rect x="614" y="70" width="250" height="250" fill="#ffa726" fill-opacity="0.2" stroke="#e65100" stroke-width="2.5"/>
  <text x="739" y="92" text-anchor="middle" fill="#7d2000" font-size="13" font-weight="700">ONCOLOGY</text>
  <text x="739" y="108" text-anchor="middle" fill="#7d2000" font-size="10">Cancer Care · Chemo Suite</text>

  <!-- Onco Beds -->
  <rect x="622" y="118" width="42" height="26" fill="#ffb74d" fill-opacity="0.65" stroke="#e65100" stroke-width="1" rx="3"/>
  <text x="643" y="135" text-anchor="middle" fill="#7d2000" font-size="8">O1</text>
  <rect x="670" y="118" width="42" height="26" fill="#ffb74d" fill-opacity="0.65" stroke="#e65100" stroke-width="1" rx="3"/>
  <text x="691" y="135" text-anchor="middle" fill="#7d2000" font-size="8">O2</text>
  <rect x="718" y="118" width="42" height="26" fill="#ffb74d" fill-opacity="0.65" stroke="#e65100" stroke-width="1" rx="3"/>
  <text x="739" y="135" text-anchor="middle" fill="#7d2000" font-size="8">O3</text>
  <rect x="766" y="118" width="42" height="26" fill="#ffb74d" fill-opacity="0.65" stroke="#e65100" stroke-width="1" rx="3"/>
  <text x="787" y="135" text-anchor="middle" fill="#7d2000" font-size="8">O4</text>
  <rect x="814" y="118" width="42" height="26" fill="#ffb74d" fill-opacity="0.65" stroke="#e65100" stroke-width="1" rx="3"/>
  <text x="835" y="135" text-anchor="middle" fill="#7d2000" font-size="8">O5</text>

  <!-- Chemo Infusion -->
  <rect x="622" y="155" width="120" height="85" fill="#ff8f00" fill-opacity="0.3" stroke="#e65100" stroke-width="2"/>
  <text x="682" y="190" text-anchor="middle" fill="#5d1a00" font-size="11" font-weight="700">CHEMO</text>
  <text x="682" y="207" text-anchor="middle" fill="#5d1a00" font-size="10">INFUSION</text>
  <text x="682" y="221" text-anchor="middle" fill="#5d1a00" font-size="9">8 Chairs</text>

  <!-- Onco Day Care -->
  <rect x="748" y="155" width="110" height="85" fill="#ffe0b2" fill-opacity="0.55" stroke="#e65100" stroke-width="2"/>
  <text x="803" y="190" text-anchor="middle" fill="#5d1a00" font-size="11" font-weight="700">ONCO</text>
  <text x="803" y="207" text-anchor="middle" fill="#5d1a00" font-size="10">DAY CARE</text>

  <!-- Onco Nurse Station -->
  <rect x="622" y="248" width="120" height="45" fill="#00897b" fill-opacity="0.45" stroke="#00695c" stroke-width="2"/>
  <text x="682" y="269" text-anchor="middle" fill="white" font-size="10" font-weight="700">NURSE</text>
  <text x="682" y="283" text-anchor="middle" fill="white" font-size="9">STATION</text>

  <!-- Onco Store -->
  <rect x="748" y="248" width="110" height="45" fill="#ffcc80" fill-opacity="0.5" stroke="#e65100" stroke-width="1.5"/>
  <text x="803" y="269" text-anchor="middle" fill="#5d1a00" font-size="10" font-weight="700">ONCO STORE</text>
  <text x="803" y="283" text-anchor="middle" fill="#5d1a00" font-size="9">Chemo Drugs</text>

  <!-- OT / PRE-POST OP (top right) -->
  <rect x="870" y="70" width="200" height="250" fill="#1abc9c" fill-opacity="0.15" stroke="#0d7a5c" stroke-width="2.5"/>
  <text x="970" y="92" text-anchor="middle" fill="#0a3d2f" font-size="12" font-weight="700">NEURO-ONCO</text>
  <text x="970" y="108" text-anchor="middle" fill="#0a3d2f" font-size="10">OT ACCESS</text>
  <!-- Pre-op -->
  <rect x="878" y="118" width="185" height="90" fill="#a5d6a7" fill-opacity="0.5" stroke="#388e3c" stroke-width="2"/>
  <text x="970" y="155" text-anchor="middle" fill="#1a4a1c" font-size="12" font-weight="700">PRE-OP ROOM</text>
  <text x="970" y="172" text-anchor="middle" fill="#1a4a1c" font-size="10">Prep · Anaesthesia</text>
  <!-- Post-op -->
  <rect x="878" y="218" width="185" height="95" fill="#c8e6c9" fill-opacity="0.5" stroke="#388e3c" stroke-width="2"/>
  <text x="970" y="258" text-anchor="middle" fill="#1a4a1c" font-size="12" font-weight="700">POST-OP ROOM</text>
  <text x="970" y="274" text-anchor="middle" fill="#1a4a1c" font-size="10">Recovery · Monitoring</text>

  <!-- ══════════════ MAIN CORRIDOR ══════════════ -->
  <rect x="40" y="326" width="1030" height="34" fill="#dce8f5" stroke="#2980b9" stroke-width="1.5"/>
  <text x="555" y="348" text-anchor="middle" fill="#1a5276" font-size="10" font-weight="600" letter-spacing="4">MAIN CORRIDOR — SECOND FLOOR</text>

  <!-- ══════════════ BOTTOM LEFT: ORTHOPEDICS ══════════════ -->
  <rect x="40" y="366" width="270" height="270" fill="#43a047" fill-opacity="0.18" stroke="#1b5e20" stroke-width="2.5"/>
  <text x="175" y="388" text-anchor="middle" fill="#0a2f0c" font-size="13" font-weight="700">ORTHOPEDICS WARD</text>
  <text x="175" y="404" text-anchor="middle" fill="#0a2f0c" font-size="10">Bone &amp; Joint · Bed O1–O12</text>

  <!-- Ortho beds row 1 -->
  <rect x="48"  y="413" width="38" height="25" fill="#81c784" fill-opacity="0.65" stroke="#388e3c" stroke-width="1" rx="3"/>
  <text x="67"  y="430" text-anchor="middle" fill="#0a2f0c" font-size="8">O1</text>
  <rect x="92"  y="413" width="38" height="25" fill="#81c784" fill-opacity="0.65" stroke="#388e3c" stroke-width="1" rx="3"/>
  <text x="111" y="430" text-anchor="middle" fill="#0a2f0c" font-size="8">O2</text>
  <rect x="136" y="413" width="38" height="25" fill="#81c784" fill-opacity="0.65" stroke="#388e3c" stroke-width="1" rx="3"/>
  <text x="155" y="430" text-anchor="middle" fill="#0a2f0c" font-size="8">O3</text>
  <rect x="180" y="413" width="38" height="25" fill="#81c784" fill-opacity="0.65" stroke="#388e3c" stroke-width="1" rx="3"/>
  <text x="199" y="430" text-anchor="middle" fill="#0a2f0c" font-size="8">O4</text>
  <rect x="224" y="413" width="38" height="25" fill="#81c784" fill-opacity="0.65" stroke="#388e3c" stroke-width="1" rx="3"/>
  <text x="243" y="430" text-anchor="middle" fill="#0a2f0c" font-size="8">O5</text>
  <rect x="268" y="413" width="34" height="25" fill="#81c784" fill-opacity="0.65" stroke="#388e3c" stroke-width="1" rx="3"/>
  <text x="285" y="430" text-anchor="middle" fill="#0a2f0c" font-size="8">O6</text>
  <!-- row 2 -->
  <rect x="48"  y="444" width="38" height="25" fill="#81c784" fill-opacity="0.65" stroke="#388e3c" stroke-width="1" rx="3"/>
  <text x="67"  y="461" text-anchor="middle" fill="#0a2f0c" font-size="8">O7</text>
  <rect x="92"  y="444" width="38" height="25" fill="#81c784" fill-opacity="0.65" stroke="#388e3c" stroke-width="1" rx="3"/>
  <text x="111" y="461" text-anchor="middle" fill="#0a2f0c" font-size="8">O8</text>
  <rect x="136" y="444" width="38" height="25" fill="#81c784" fill-opacity="0.65" stroke="#388e3c" stroke-width="1" rx="3"/>
  <text x="155" y="461" text-anchor="middle" fill="#0a2f0c" font-size="8">O9</text>
  <rect x="180" y="444" width="38" height="25" fill="#81c784" fill-opacity="0.65" stroke="#388e3c" stroke-width="1" rx="3"/>
  <text x="199" y="461" text-anchor="middle" fill="#0a2f0c" font-size="8">O10</text>
  <rect x="224" y="444" width="38" height="25" fill="#81c784" fill-opacity="0.65" stroke="#388e3c" stroke-width="1" rx="3"/>
  <text x="243" y="461" text-anchor="middle" fill="#0a2f0c" font-size="8">O11</text>
  <rect x="268" y="444" width="34" height="25" fill="#81c784" fill-opacity="0.65" stroke="#388e3c" stroke-width="1" rx="3"/>
  <text x="285" y="461" text-anchor="middle" fill="#0a2f0c" font-size="8">O12</text>

  <!-- Nurse Station Ortho -->
  <rect x="48" y="478" width="120" height="45" fill="#00897b" fill-opacity="0.45" stroke="#00695c" stroke-width="2"/>
  <text x="108" y="499" text-anchor="middle" fill="white" font-size="10" font-weight="700">NURSE STATION</text>
  <text x="108" y="513" text-anchor="middle" fill="white" font-size="9">Orthopedics</text>

  <!-- Plaster Room -->
  <rect x="48" y="533" width="125" height="55" fill="#a5d6a7" fill-opacity="0.45" stroke="#388e3c" stroke-width="1.5"/>
  <text x="110" y="558" text-anchor="middle" fill="#1a4a1c" font-size="11" font-weight="700">PLASTER ROOM</text>
  <text x="110" y="573" text-anchor="middle" fill="#1a4a1c" font-size="9">Cast Application</text>
  <!-- Physiotherapy -->
  <rect x="180" y="533" width="122" height="55" fill="#c8e6c9" fill-opacity="0.5" stroke="#388e3c" stroke-width="1.5"/>
  <text x="241" y="558" text-anchor="middle" fill="#1a4a1c" font-size="11" font-weight="700">PHYSIO</text>
  <text x="241" y="573" text-anchor="middle" fill="#1a4a1c" font-size="9">Physiotherapy</text>

  <!-- ══════════════ BOTTOM CENTER: UROLOGY ══════════════ -->
  <rect x="317" y="366" width="245" height="175" fill="#00897b" fill-opacity="0.18" stroke="#00695c" stroke-width="2.5"/>
  <text x="439" y="388" text-anchor="middle" fill="#003d33" font-size="13" font-weight="700">UROLOGY</text>
  <text x="439" y="404" text-anchor="middle" fill="#003d33" font-size="10">OPD · Ward · Endoscopy</text>

  <!-- Urology Beds -->
  <rect x="325" y="413" width="38" height="25" fill="#4db6ac" fill-opacity="0.65" stroke="#00897b" stroke-width="1" rx="3"/>
  <text x="344" y="430" text-anchor="middle" fill="white" font-size="8">U1</text>
  <rect x="369" y="413" width="38" height="25" fill="#4db6ac" fill-opacity="0.65" stroke="#00897b" stroke-width="1" rx="3"/>
  <text x="388" y="430" text-anchor="middle" fill="white" font-size="8">U2</text>
  <rect x="413" y="413" width="38" height="25" fill="#4db6ac" fill-opacity="0.65" stroke="#00897b" stroke-width="1" rx="3"/>
  <text x="432" y="430" text-anchor="middle" fill="white" font-size="8">U3</text>
  <rect x="457" y="413" width="38" height="25" fill="#4db6ac" fill-opacity="0.65" stroke="#00897b" stroke-width="1" rx="3"/>
  <text x="476" y="430" text-anchor="middle" fill="white" font-size="8">U4</text>
  <rect x="501" y="413" width="53" height="25" fill="#4db6ac" fill-opacity="0.65" stroke="#00897b" stroke-width="1" rx="3"/>
  <text x="527" y="430" text-anchor="middle" fill="white" font-size="8">U5</text>

  <!-- Urology OPD -->
  <rect x="325" y="447" width="110" height="50" fill="#b2dfdb" fill-opacity="0.5" stroke="#00897b" stroke-width="1.5"/>
  <text x="380" y="471" text-anchor="middle" fill="#003d33" font-size="10" font-weight="700">UROLOGY OPD</text>
  <text x="380" y="485" text-anchor="middle" fill="#003d33" font-size="9">Consultation</text>
  <!-- Endoscopy -->
  <rect x="443" y="447" width="111" height="50" fill="#00bcd4" fill-opacity="0.25" stroke="#0097a7" stroke-width="1.5"/>
  <text x="498" y="466" text-anchor="middle" fill="#004d56" font-size="10" font-weight="700">ENDOSCOPY</text>
  <text x="498" y="480" text-anchor="middle" fill="#004d56" font-size="9">Suite</text>

  <!-- Urology bottom: store + nurse -->
  <rect x="317" y="548" width="245" height="88" fill="#b2dfdb" fill-opacity="0.3" stroke="#00695c" stroke-width="1.5"/>
  <text x="439" y="575" text-anchor="middle" fill="#003d33" font-size="11" font-weight="700">PROCEDURE ROOM</text>
  <text x="439" y="592" text-anchor="middle" fill="#003d33" font-size="9">Minor Surgeries · ESWL · Cystoscopy</text>
  <text x="439" y="608" text-anchor="middle" fill="#003d33" font-size="9">Recovery · Post-Procedure Care</text>

  <!-- ══════════════ BOTTOM CENTER-RIGHT: GASTRO ══════════════ -->
  <rect x="569" y="366" width="245" height="270" fill="#7e57c2" fill-opacity="0.15" stroke="#4527a0" stroke-width="2.5"/>
  <text x="691" y="388" text-anchor="middle" fill="#1a005e" font-size="12" font-weight="700">GASTROENTEROLOGY</text>
  <text x="691" y="404" text-anchor="middle" fill="#1a005e" font-size="10">OPD · GI Endoscopy · Ward</text>

  <!-- Gastro Beds -->
  <rect x="577" y="413" width="38" height="25" fill="#b39ddb" fill-opacity="0.65" stroke="#5e35b1" stroke-width="1" rx="3"/>
  <text x="596" y="430" text-anchor="middle" fill="white" font-size="8">G1</text>
  <rect x="621" y="413" width="38" height="25" fill="#b39ddb" fill-opacity="0.65" stroke="#5e35b1" stroke-width="1" rx="3"/>
  <text x="640" y="430" text-anchor="middle" fill="white" font-size="8">G2</text>
  <rect x="665" y="413" width="38" height="25" fill="#b39ddb" fill-opacity="0.65" stroke="#5e35b1" stroke-width="1" rx="3"/>
  <text x="684" y="430" text-anchor="middle" fill="white" font-size="8">G3</text>
  <rect x="709" y="413" width="38" height="25" fill="#b39ddb" fill-opacity="0.65" stroke="#5e35b1" stroke-width="1" rx="3"/>
  <text x="728" y="430" text-anchor="middle" fill="white" font-size="8">G4</text>
  <rect x="753" y="413" width="53" height="25" fill="#b39ddb" fill-opacity="0.65" stroke="#5e35b1" stroke-width="1" rx="3"/>
  <text x="779" y="430" text-anchor="middle" fill="white" font-size="8">G5</text>

  <!-- GI Endoscopy Suite -->
  <rect x="577" y="448" width="229" height="80" fill="#9c27b0" fill-opacity="0.2" stroke="#6a1b9a" stroke-width="2"/>
  <text x="691" y="482" text-anchor="middle" fill="#1a005e" font-size="12" font-weight="700">GI ENDOSCOPY SUITE</text>
  <text x="691" y="499" text-anchor="middle" fill="#1a005e" font-size="10">Gastroscopy · Colonoscopy</text>
  <text x="691" y="513" text-anchor="middle" fill="#1a005e" font-size="9">ERCP · Recovery Bay</text>

  <!-- Gastro OPD -->
  <rect x="577" y="538" width="229" height="55" fill="#ce93d8" fill-opacity="0.35" stroke="#6a1b9a" stroke-width="1.5"/>
  <text x="691" y="563" text-anchor="middle" fill="#1a005e" font-size="11" font-weight="700">GASTRO OPD</text>
  <text x="691" y="579" text-anchor="middle" fill="#1a005e" font-size="9">Consultations · Dietitian</text>

  <!-- Gastro Nurse + Store -->
  <rect x="577" y="602" width="110" height="34" fill="#00897b" fill-opacity="0.4" stroke="#00695c" stroke-width="1.5"/>
  <text x="632" y="622" text-anchor="middle" fill="white" font-size="10" font-weight="700">NURSE STATION</text>
  <rect x="695" y="602" width="111" height="34" fill="#b0bec5" fill-opacity="0.4" stroke="#78909c" stroke-width="1.5"/>
  <text x="750" y="622" text-anchor="middle" fill="#2c3e50" font-size="10" font-weight="700">UTILITY ROOM</text>

  <!-- ══════════════ PRIVATE ROOMS (bottom right) ══════════════ -->
  <rect x="820" y="366" width="250" height="270" fill="#ffa726" fill-opacity="0.12" stroke="#e65100" stroke-width="2.5"/>
  <text x="945" y="388" text-anchor="middle" fill="#7d2000" font-size="12" font-weight="700">SEMI-PRIVATE &amp;</text>
  <text x="945" y="404" text-anchor="middle" fill="#7d2000" font-size="11">PRIVATE ROOMS</text>

  <!-- Rooms -->
  <rect x="828" y="415" width="110" height="75" fill="#ffe082" fill-opacity="0.55" stroke="#f9a825" stroke-width="1.5"/>
  <text x="883" y="449" text-anchor="middle" fill="#7d4a00" font-size="11" font-weight="700">Room S1</text>
  <text x="883" y="465" text-anchor="middle" fill="#7d4a00" font-size="9">Semi-Private</text>

  <rect x="948" y="415" width="114" height="75" fill="#ffe082" fill-opacity="0.55" stroke="#f9a825" stroke-width="1.5"/>
  <text x="1005" y="449" text-anchor="middle" fill="#7d4a00" font-size="11" font-weight="700">Room S2</text>
  <text x="1005" y="465" text-anchor="middle" fill="#7d4a00" font-size="9">Semi-Private</text>

  <rect x="828" y="500" width="110" height="80" fill="#ffca28" fill-opacity="0.65" stroke="#f57f17" stroke-width="2.5"/>
  <text x="883" y="535" text-anchor="middle" fill="#5c3000" font-size="11" font-weight="700">Room S3</text>
  <text x="883" y="551" text-anchor="middle" fill="#e65100" font-size="10" font-weight="700">★ VIP Suite</text>

  <rect x="948" y="500" width="114" height="80" fill="#ffca28" fill-opacity="0.65" stroke="#f57f17" stroke-width="2.5"/>
  <text x="1005" y="535" text-anchor="middle" fill="#5c3000" font-size="11" font-weight="700">Room S4</text>
  <text x="1005" y="551" text-anchor="middle" fill="#e65100" font-size="10" font-weight="700">★ VIP Suite</text>

  <!-- Nursing / WC -->
  <rect x="828" y="590" width="110" height="38" fill="#00897b" fill-opacity="0.4" stroke="#00695c" stroke-width="1.5"/>
  <text x="883" y="612" text-anchor="middle" fill="white" font-size="10" font-weight="700">NURSE STATION</text>
  <rect x="948" y="590" width="114" height="38" fill="url(#hatch)" stroke="#7f8c8d" stroke-width="1.5"/>
  <text x="1005" y="612" text-anchor="middle" fill="#2c3e50" font-size="10">WC ♂ ♀</text>

  <!-- ══════════════ LOWER CORRIDOR ══════════════ -->
  <rect x="40" y="648" width="1030" height="28" fill="#dce8f5" stroke="#2980b9" stroke-width="1"/>
  <text x="555" y="666" text-anchor="middle" fill="#1a5276" font-size="9" font-weight="600" letter-spacing="3">LOWER CORRIDOR — SECOND FLOOR</text>

  <!-- Staircase Left -->
  <rect x="40" y="680" width="155" height="38" fill="url(#stair)" stroke="#7f8c8d" stroke-width="1.5"/>
  <text x="117" y="702" text-anchor="middle" fill="#2c3e50" font-size="10" font-weight="700">STAIRCASE — FIRE EXIT (LEFT)</text>
  <!-- Central Service -->
  <rect x="400" y="680" width="280" height="38" fill="#ecf0f1" stroke="#bdc3c7" stroke-width="1"/>
  <text x="540" y="702" text-anchor="middle" fill="#7f8c8d" font-size="10">CENTRAL CORRIDOR — SERVICE AREA</text>
  <!-- Lifts -->
  <rect x="285" y="680" width="75" height="38" fill="#2c3e50" fill-opacity="0.35" stroke="#2c3e50" stroke-width="2"/>
  <text x="322" y="702" text-anchor="middle" fill="white" font-size="10">🛗 LIFTS</text>
  <!-- Staircase Right -->
  <rect x="900" y="680" width="170" height="38" fill="url(#stair)" stroke="#7f8c8d" stroke-width="1.5"/>
  <text x="985" y="702" text-anchor="middle" fill="#2c3e50" font-size="10" font-weight="700">STAIRCASE — FIRE EXIT (RIGHT)</text>

  <!-- ══════════════ LEGEND ══════════════ -->
  <rect x="30" y="726" width="1040" height="20" fill="#1a3a5c" rx="0 0 3 3"/>
  <text x="50"  y="739" fill="white" font-size="9">■ Neurology / Neuro ICU</text>
  <text x="210" y="739" fill="white" font-size="9">■ Neurosurgery</text>
  <text x="330" y="739" fill="white" font-size="9">■ Oncology / Chemo</text>
  <text x="470" y="739" fill="white" font-size="9">■ Orthopedics</text>
  <text x="580" y="739" fill="white" font-size="9">■ Urology</text>
  <text x="670" y="739" fill="white" font-size="9">■ Gastroenterology</text>
  <text x="810" y="739" fill="white" font-size="9">■ Private / VIP</text>
  <text x="920" y="739" fill="white" font-size="9">■ OT / Utility / Stairs</text>
</svg>
